<svg id="Layer_1" data-name="Layer 1" xmlns="http://www.w3.org/2000/svg" viewBox="0 0 83.72 34.98"><defs><style>.cls-1{fill:#fff;}</style></defs><path class="cls-1" d="M34.77,21.66a2.16,2.16,0,1,1-2.16-2.16A2.16,2.16,0,0,1,34.77,21.66Z" transform="translate(-4.69 -6.58)"/><path class="cls-1" d="M27.94,21.66a2.17,2.17,0,1,1-2.16-2.16A2.16,2.16,0,0,1,27.94,21.66Z" transform="translate(-4.69 -6.58)"/><path class="cls-1" d="M21.1,21.66a2.16,2.16,0,1,1-2.16-2.16A2.16,2.16,0,0,1,21.1,21.66Z" transform="translate(-4.69 -6.58)"/><path class="cls-1" d="M76.32,21.66a2.16,2.16,0,1,1-2.16-2.16A2.16,2.16,0,0,1,76.32,21.66Z" transform="translate(-4.69 -6.58)"/><path class="cls-1" d="M69.49,21.66a2.16,2.16,0,1,1-2.16-2.16A2.16,2.16,0,0,1,69.49,21.66Z" transform="translate(-4.69 -6.58)"/><path class="cls-1" d="M62.66,21.66A2.16,2.16,0,1,1,60.5,19.5,2.16,2.16,0,0,1,62.66,21.66Z" transform="translate(-4.69 -6.58)"/><path class="cls-1" d="M88.41,14.46V28.69a7.88,7.88,0,0,1-7.86,7.87H77.19l-4.64,5-4.64-5H51.2a13.31,13.31,0,0,0,1.6-2.94H69.18l3.37,3.64,3.35-3.64h4.65a4.93,4.93,0,0,0,4.92-4.93V14.46a4.93,4.93,0,0,0-4.92-4.94H53A4.94,4.94,0,0,0,48,14.46v6.66a1.47,1.47,0,0,1-2.93,0V14.46A7.88,7.88,0,0,1,53,6.58h27.6A7.88,7.88,0,0,1,88.41,14.46Z" transform="translate(-4.69 -6.58)"/><path class="cls-1" d="M48,22.73v6a7.88,7.88,0,0,1-7.87,7.87H25.21l-4.64,5-4.64-5H12.57a7.88,7.88,0,0,1-7.88-7.87V14.46a7.88,7.88,0,0,1,7.88-7.88H41.9a14,14,0,0,0-1.6,2.94H12.57a5,5,0,0,0-4.94,4.94V28.69a4.94,4.94,0,0,0,4.94,4.93H17.2l3.37,3.64,3.36-3.64H40.15a4.94,4.94,0,0,0,4.94-4.93v-6a2.19,2.19,0,0,0,1.46.56A2.22,2.22,0,0,0,48,22.73Z" transform="translate(-4.69 -6.58)"/></svg>