<svg id="Layer_1" data-name="Layer 1" xmlns="http://www.w3.org/2000/svg" viewBox="0 0 80.78 67.77"><defs><style>.cls-1{fill:#fff;}</style></defs><path class="cls-1" d="M88.63,29.62c-2.49-3-5-6.07-7.47-9.12a2.55,2.55,0,0,0-2.1-1q-28.45,0-56.89,0a2.53,2.53,0,0,0-2.1,1q-4,4.93-8.07,9.86L10.64,32l-.38.33v4.52l0,.23c.07.22.13.43.19.65A10.52,10.52,0,0,0,11,39.27a9.32,9.32,0,0,0,7,5.55V85c0,1.78.52,2.3,2.31,2.3H80.92c1.8,0,2.35-.55,2.35-2.36V44.81a9.45,9.45,0,0,0,7.34-6.57c.11-.35.2-.71.29-1.06l.11-.46,0-4.17ZM72.57,22.83a40,40,0,0,0,4.11-.06,3.42,3.42,0,0,1,3.47,1.6c1.46,2,3,3.85,4.6,5.68.38.47.77.93,1.16,1.4H75Q73.79,28.21,72.55,25l-.81-2.16Zm-12.52,0h.71c2.48,0,5,0,7.43,0h0c1,2.62,2,5.25,3,7.92l.24.64H60.05Zm0,12H72.23a6,6,0,0,1-2.87,5.94,5.71,5.71,0,0,1-6.67-.11A6,6,0,0,1,60,34.78ZM44.55,22.85H56.67v8.57H44.55ZM51,34.73h5.7a6.31,6.31,0,0,1-4.7,6.8,6.13,6.13,0,0,1-7.37-4.67,7.47,7.47,0,0,1-.11-1.29c0-.28,0-.57,0-.85C46.67,34.74,48.84,34.73,51,34.73Zm-20.8-4.57c.9-2.4,1.8-4.79,2.72-7.17a.74.74,0,0,1,.12-.16c2.24,0,4.48,0,6.76,0h1.1v8.61H29.74Zm11,4.57a6.17,6.17,0,0,1-3.15,6.16,5.94,5.94,0,0,1-5.67.16,6,6,0,0,1-3.34-4.65c-.09-.73-.18-1.47-.17-1.58a6.85,6.85,0,0,1,1.62-.09ZM17,29.36l1.68-2c1.17-1.41,2.33-2.83,3.49-4.24a.6.6,0,0,1,.58-.3c1.62,0,3.23,0,4.85,0H29.5l-3.25,8.61H15.35Zm-.46,11.49c-2.19-1.27-3.18-3.21-3.09-6.08H25.74a6.18,6.18,0,0,1-2.63,5.78A5.69,5.69,0,0,1,16.57,40.85ZM71.77,83.9H58.69V60.56A5.15,5.15,0,0,1,64,55.12h.39a22.35,22.35,0,0,1,2.84.08,5,5,0,0,1,4.48,4.85c0,1,0,2,0,3Zm8.16,0H75.06V60.65a8.39,8.39,0,0,0-4.74-7.95,4.73,4.73,0,0,0-1.56-.55l-.34,0c-3-.38-6-.77-8.87.94a8,8,0,0,0-4.09,7.18q0,8.55,0,17.12v6.56H21.28V44.78a9.42,9.42,0,0,0,6-3.92,9.33,9.33,0,0,0,7.63,4H35a9.52,9.52,0,0,0,7.83-4.09,9.1,9.1,0,0,0,7.72,4.09h0a9.12,9.12,0,0,0,7.72-4,9.75,9.75,0,0,0,3.39,3,9.45,9.45,0,0,0,4.38,1.06A9.59,9.59,0,0,0,74,40.79c2.31,2.8,2.94,3.19,6,4Zm5.24-43.43a5.68,5.68,0,0,1-6.66.3c-2.16-1.29-3.12-3.22-3-6H87.74A6,6,0,0,1,85.17,40.51Z" transform="translate(-10.26 -19.51)"/><path class="cls-1" d="M48.86,52.74H28.27c-1.51,0-2.07.56-2.07,2.07V75.4c0,1.51.56,2.07,2.07,2.07H48.86c1.44,0,2-.61,2-2q0-10.34,0-20.67C50.91,53.37,50.28,52.74,48.86,52.74Zm-1.27,3.33V74.13H29.5V56.07Z" transform="translate(-10.26 -19.51)"/></svg>