<svg id="Layer_1" data-name="Layer 1" xmlns="http://www.w3.org/2000/svg" viewBox="0 0 81.56 64.49"><defs><style>.cls-1{fill:#fff;}</style></defs><path class="cls-1" d="M86.3,19.63H17a6.13,6.13,0,0,0-6.13,6.12V68.83A6.13,6.13,0,0,0,17,75H22.2v7.42a1.75,1.75,0,0,0,3.5,0V75H78.39v7.42a1.75,1.75,0,0,0,3.5,0V75H86.3a6.12,6.12,0,0,0,6.12-6.12V25.75A6.13,6.13,0,0,0,86.3,19.63ZM49.89,71.45H17a2.64,2.64,0,0,1-2.63-2.62V25.75A2.63,2.63,0,0,1,17,23.14h32.9Zm39-2.62a2.63,2.63,0,0,1-2.62,2.62H53.39V23.14H86.3a2.62,2.62,0,0,1,2.62,2.61Z" transform="translate(-10.86 -19.63)"/><path class="cls-1" d="M61.4,54.75A1.75,1.75,0,0,1,59.65,53V42a1.75,1.75,0,0,1,3.5,0V53A1.75,1.75,0,0,1,61.4,54.75Z" transform="translate(-10.86 -19.63)"/><path class="cls-1" d="M42.13,54.75A1.75,1.75,0,0,1,40.38,53V42a1.75,1.75,0,0,1,3.5,0V53A1.75,1.75,0,0,1,42.13,54.75Z" transform="translate(-10.86 -19.63)"/></svg>