<svg id="Layer_1" data-name="Layer 1" xmlns="http://www.w3.org/2000/svg" viewBox="0 0 16.12 16.08"><defs><style>.cls-1{fill:#fff;}</style></defs><path class="cls-1" d="M20,24.39a.45.45,0,0,1-.33-.11.47.47,0,0,1-.12-.35q0-2.59,0-5.19a4.49,4.49,0,0,0-.14-1.22,1.2,1.2,0,0,0-1.33-.94,1.49,1.49,0,0,0-1.59,1.51,6.79,6.79,0,0,0,0,.78v5.05a.48.48,0,0,1-.12.36.51.51,0,0,1-.35.11H13.16a.45.45,0,0,1-.34-.11.48.48,0,0,1-.12-.34q0-5,0-10a.41.41,0,0,1,.48-.46h2.68a.47.47,0,0,1,.35.12.42.42,0,0,1,.11.35v.49l.18-.19a3.68,3.68,0,0,1,2.61-1,5.72,5.72,0,0,1,1.6.2A3.24,3.24,0,0,1,23,15.84a9.71,9.71,0,0,1,.3,2.63c0,.88,0,1.76,0,2.64v2.81a.48.48,0,0,1-.12.36.49.49,0,0,1-.35.11H20Zm1.34-.52h1.43c0-.94,0-1.85,0-2.76V18.47A9.38,9.38,0,0,0,22.51,16a2.71,2.71,0,0,0-1.94-2.05,5.33,5.33,0,0,0-1.46-.18,3.32,3.32,0,0,0-2.63,1.31l-.22.26-.46.51V14H13.22c0,3.31,0,6.58,0,9.86h2.72v-5A5.83,5.83,0,0,1,16,18a2,2,0,0,1,2.07-2,1.7,1.7,0,0,1,1.86,1.32,5,5,0,0,1,.16,1.36c0,1.71,0,3.42,0,5.13Z" transform="translate(-7.19 -8.32)"/><path class="cls-1" d="M10.71,24.4h0c-.94,0-1.87,0-2.81,0a.39.39,0,0,1-.45-.45v-10a.44.44,0,0,1,.11-.33.4.4,0,0,1,.33-.11h2.84a.43.43,0,0,1,.35.11.5.5,0,0,1,.12.37V23.9a.5.5,0,0,1-.12.37A.49.49,0,0,1,10.71,24.4Zm-1.44-.53h1.4V14H8c0,3.31,0,6.58,0,9.86Z" transform="translate(-7.19 -8.32)"/><path class="cls-1" d="M9.32,12.58a2.13,2.13,0,0,1,0-4.26h0a2.13,2.13,0,0,1,2.13,2.12h0a2.15,2.15,0,0,1-2.13,2.14Zm0-3.74a1.63,1.63,0,0,0-1.14.47,1.61,1.61,0,0,0-.47,1.15,1.63,1.63,0,0,0,1.61,1.6h0a1.62,1.62,0,0,0,1.61-1.62h0a1.61,1.61,0,0,0-1.61-1.6Z" transform="translate(-7.19 -8.32)"/></svg>