<svg id="Layer_1" data-name="Layer 1" xmlns="http://www.w3.org/2000/svg" viewBox="0 0 19.83 16.37"><defs><style>.cls-1{fill:#fff;}</style></defs><path class="cls-1" d="M24.5,9a.87.87,0,0,0-.9-.16L5.54,15.71a.89.89,0,0,0-.57.85.9.9,0,0,0,.6.83l4.52,1.52L12,24.12l0,.06a.35.35,0,0,0,.15.17.32.32,0,0,0,.14,0,.27.27,0,0,0,.19-.08l2.65-2.24,3.7,2.8a1.47,1.47,0,0,0,.91.31,1.51,1.51,0,0,0,.5-.09,1.48,1.48,0,0,0,.95-1L24.77,9.9A.86.86,0,0,0,24.5,9ZM12.33,19.43h0l0,0,0,0s0,0,0,0,0,0,0,0a.25.25,0,0,1,0,.07v.06h0l-.13,2.89L10.71,18.8l7.44-4.47Zm.34,3.95.14-3.12,1.87,1.42ZM24.18,9.75,20.64,23.89a.87.87,0,0,1-.56.62.89.89,0,0,1-.83-.13l-3.89-3L13,19.64l8.11-7.11a.31.31,0,0,0,.05-.41.31.31,0,0,0-.41-.08L10.29,18.33,5.77,16.81a.27.27,0,0,1-.19-.26.27.27,0,0,1,.18-.26L23.82,9.43a.27.27,0,0,1,.27.05A.26.26,0,0,1,24.18,9.75Z" transform="translate(-4.97 -8.8)"/></svg>