<svg id="Layer_1" data-name="Layer 1" xmlns="http://www.w3.org/2000/svg" viewBox="0 0 72.07 71.93"><defs><style>.cls-1{fill:#c4974a;}</style></defs><path class="cls-1" d="M3.16,62.77a1.6,1.6,0,0,1,1.56-.71c1.34,0,2.67,0,4.1,0,0-1.07,0-2.1,0-3.11a2.25,2.25,0,0,1,.73-1.81C12,54.79,14.32,52.38,16.73,50a.66.66,0,0,0,.11-1,28,28,0,0,1-4.43-15A28.12,28.12,0,0,1,17.9,16.87,28.74,28.74,0,0,1,47.61,5.78a28.2,28.2,0,0,1,8.24,3.31l1,.61a1,1,0,0,0,.2.05c.73-.74,1.48-1.51,2.24-2.27s1.22-.71,1.93,0c1,.95,1.94,1.91,2.89,2.87.69.71.68,1.22,0,1.93C62.43,14,60.73,15.66,59,17.35c-.16.16-.32.33-.57.61.72.08,1.34.13,2,.22.92.14,1.24.61,1.07,1.52-.19,1.06-.39,2.11-.6,3.24l2.91,1.19c1.1.45,1.29,1,.75,2s-.93,1.83-1.42,2.79c.84.67,1.67,1.32,2.48,2s.93,1.26.15,2.1l-2.18,2.3,1.78,2.51c.73,1,.61,1.55-.5,2.2-.75.44-1.51.85-2.23,1.33a.73.73,0,0,0-.24.64c.27.92.61,1.82.9,2.73a1.1,1.1,0,0,1-.88,1.64c-1.06.28-2.13.54-3.26.82.05,1.05.1,2.07.14,3.1.05,1.19-.32,1.57-1.51,1.54-.84,0-1.69,0-2.53-.12-.51-.05-.7.12-.79.6-.17.83-.4,1.64-.61,2.45-.29,1.15-.75,1.4-1.89,1l-3-1L47.46,57.4c-.68,1.15-1.14,1.24-2.26.46l-2.3-1.62-.18-.09-2.28,2.14c-.88.81-1.39.77-2.15-.18l-1.94-2.44L33.5,57.13c-1,.49-1.51.31-1.94-.71-.34-.82-.69-1.64-1-2.47-.16-.44-.39-.51-.8-.42-.84.18-1.7.34-2.55.5-1.11.2-1.59-.18-1.69-1.28,0-.53-.11-1.06-.18-1.71-.24.21-.41.35-.56.51-1,1-2,2-3,3a1.71,1.71,0,0,0-.44,1.09c-.05,1.89,0,3.79,0,5.69,0,.23,0,.45,0,.75H63.08a3.91,3.91,0,0,1,.84,0,1,1,0,0,1-.07,2.07,8,8,0,0,1-.85,0H21.38c-.77,3.45-2.83,5.48-6.42,5.53-2.44,0-5.31-1.5-6.13-5.49H5.35v6.1H73.06V64.2H67.58c-.83,0-1.31-.39-1.33-1s.49-1.08,1.29-1.09c2.14,0,4.27,0,6.41,0,.43,0,.85.43,1.28.67v9a1.45,1.45,0,0,1-1.51.79H71.1c0,1,0,2,0,2.91a1.44,1.44,0,0,1-.8,1.5H62.56a1.73,1.73,0,0,1-.7-1.64c0-.91,0-1.81,0-2.72H16.52c0,.94,0,1.83,0,2.72A1.71,1.71,0,0,1,15.83,77H8.09a1.46,1.46,0,0,1-.81-1.5c0-.95,0-1.9,0-2.91H4.67a1.45,1.45,0,0,1-1.51-.79Zm57-53.34a4,4,0,0,1-.49.73Q46,23.85,32.24,37.53a4.87,4.87,0,0,1-.68.61,1,1,0,0,1-1.48-1.38,4,4,0,0,1,.6-.69L54.82,12a4.52,4.52,0,0,1,.74-.49A26.5,26.5,0,0,0,18.82,48.07a7.12,7.12,0,0,1,.49-.64L27,39.72a3.79,3.79,0,0,1,.51-.47,1,1,0,0,1,1.4.06,1,1,0,0,1,.09,1.4,5.67,5.67,0,0,1-.58.62l-17,16.94a1.47,1.47,0,0,0-.48.87c0,1.61,0,3.23,0,4.84A3.69,3.69,0,0,0,13,67a4.08,4.08,0,0,0,6.24-3.43c.06-2.76,0-5.53,0-8.29a2.59,2.59,0,0,1,.85-2Q40.77,32.6,61.47,11.93a2.6,2.6,0,0,1,.65-.4ZM39.52,56.22l2-1.89c.88-.83,1.18-.85,2.19-.14l2.23,1.57c.51-.88,1-1.73,1.5-2.57a1.19,1.19,0,0,1,1.7-.64l2.82,1,.73-2.9c.22-.85.51-1.06,1.39-1.06H57c0-.83,0-1.71,0-2.59-.05-1.19.15-1.48,1.3-1.77.88-.21,1.75-.44,2.67-.67L60,41.78c-.31-.94-.18-1.29.67-1.8l2.51-1.47c-.6-.85-1.16-1.63-1.7-2.41s-.51-1.16.15-1.86,1.31-1.39,2-2.13l-2.25-1.79c-.8-.64-.88-1-.42-1.92l1.3-2.57c-1-.39-1.86-.75-2.74-1.12s-1.05-.71-.88-1.64.35-1.87.54-2.86c-.75-.08-1.42-.11-2.09-.22a1.12,1.12,0,0,0-1.11.36q-4.46,4.48-9,9c-.14.14-.27.3-.4.45l.23.4a6.77,6.77,0,0,1-9.32,9.33.57.57,0,0,0-.83.11l-9.1,9.1c-.12.13-.29.31-.28.45,0,.86.13,1.71.22,2.63l2.84-.52c1-.17,1.33,0,1.73,1l1.08,2.65,2.24-1.13c1.37-.71,1.52-.68,2.46.51Zm-.68-18.48a4.61,4.61,0,0,0,5.8-1c1.34-1.49,1.54-4.09.48-5.31ZM9.51,72.58v2.2h4.8v-2.2Zm54.55,0v2.24h4.83V72.55H64.06Z" transform="translate(-3.16 -5.03)"/><path class="cls-1" d="M18.5,63.12a3.42,3.42,0,1,1-3.41-3.4A3.43,3.43,0,0,1,18.5,63.12Zm-3.39,1.29a1.32,1.32,0,0,0,1.25-1.28A1.27,1.27,0,0,0,15,61.89a1.23,1.23,0,0,0-1.2,1.29A1.27,1.27,0,0,0,15.11,64.41Z" transform="translate(-3.16 -5.03)"/></svg>