<svg id="Layer_1" data-name="Layer 1" xmlns="http://www.w3.org/2000/svg" viewBox="0 0 33.53 27.68"><defs><style>.cls-1{fill:#fff;}</style></defs><path class="cls-1" d="M34.8,4.24A1.5,1.5,0,0,0,33.27,4L2.74,15.56a1.5,1.5,0,0,0,0,2.83L10.43,21l3.26,8.8a.47.47,0,0,0,.05.1.51.51,0,0,0,.26.28.46.46,0,0,0,.23.05.54.54,0,0,0,.33-.12L19,26.28,25.3,31a2.53,2.53,0,0,0,4-1.4l6-23.9A1.51,1.51,0,0,0,34.8,4.24ZM14.22,21.84h0a.12.12,0,0,0-.05.05l0,0,0,0s0,0,0,.05a.3.3,0,0,0,0,.1v0a.2.2,0,0,0,0,.07v0l-.22,4.88-2.35-6.35,12.59-7.56Zm.58,6.68L15,23.24l3.17,2.4Zm19.45-23-6,23.89a1.44,1.44,0,0,1-.95,1.05,1.47,1.47,0,0,1-1.4-.22l-6.58-5-4-3,13.72-12a.52.52,0,0,0-.61-.84L10.77,20,3.12,17.41A.46.46,0,0,1,2.81,17a.45.45,0,0,1,.3-.44L33.64,4.93a.44.44,0,0,1,.47.09A.46.46,0,0,1,34.25,5.48Z" transform="translate(-1.77 -3.86)"/></svg>