<svg id="Layer_1" data-name="Layer 1" xmlns="http://www.w3.org/2000/svg" viewBox="0 0 30.39 34.36"><defs><style>.cls-1{fill:#fff;}</style></defs><path class="cls-1" d="M33.82,9.31A2,2,0,0,0,33.65,9l0,0,0,0a2,2,0,0,0-.18-.25,2.36,2.36,0,0,0-.64-.54L27,4.73,25.78,4,20,.68h0A2.15,2.15,0,0,0,19.17.4a1.72,1.72,0,0,0-.39,0,1.75,1.75,0,0,0-.4,0,2.15,2.15,0,0,0-.77.27L11.77,4l-1.18.69L4.77,8.09a2.26,2.26,0,0,0-.65.54c-.06.08-.13.17-.18.25A.43.43,0,0,1,3.9,9a2.92,2.92,0,0,0-.17.36,2.31,2.31,0,0,0-.15.83V25a2.29,2.29,0,0,0,.15.82,2,2,0,0,0,.17.36l0,.07a2.4,2.4,0,0,0,.18.26,2.55,2.55,0,0,0,.64.54l5.83,3.36.39.23.4.23h0l.39.22,5.82,3.37.07,0a2.37,2.37,0,0,0,.72.25,2.6,2.6,0,0,0,.4,0,2.56,2.56,0,0,0,.39,0,2.28,2.28,0,0,0,.72-.25L25.78,31l.4-.22h0l.39-.23.4-.23L32.79,27a2.55,2.55,0,0,0,.64-.54,1.51,1.51,0,0,0,.18-.26l0,0,0,0a1.49,1.49,0,0,0,.17-.36A2.29,2.29,0,0,0,34,25V10.14A2.31,2.31,0,0,0,33.82,9.31ZM26.57,29.68V22.5l6.16,3.55a1.23,1.23,0,0,1-.34.26ZM33.18,25a2,2,0,0,1,0,.42L27,21.82l6.21-3.59Zm-7.4,4.73-6-3.48-.2-.11,6.21-3.59Zm-6.26,4.07a1.48,1.48,0,0,1-.35.13V26.77l6.22,3.59-5.82,3.36ZM11,29.68,5.16,26.31a1.4,1.4,0,0,1-.34-.26l2.36-1.36L11,22.5ZM4.37,18.23l6.22,3.59L4.43,25.37A1.52,1.52,0,0,1,4.37,25ZM11,5.41v7.18L4.82,9a1.7,1.7,0,0,1,.34-.26ZM19.17,1.2a1.61,1.61,0,0,1,.38.16l5.84,3.37L19.17,8.31ZM32.79,17.54l-6.22,3.59V14Zm-15,8.66-6,3.48V22.5L18,26.09Zm.59-.8-6.21-3.58-.4-.23V14l6.61,3.82ZM12.17,13.27l6.21-3.59.4-.23.39.23,6.22,3.59-6.61,3.82ZM18,9l-6.22,3.59V5.41Zm1.58,0,6.21-3.59v7.18ZM18,1.36a1.8,1.8,0,0,1,.38-.16V8.31L12.17,4.73,18,1.37ZM4.37,10.14a1.42,1.42,0,0,1,.06-.42l6.16,3.55L4.37,16.86ZM11,14v7.18L4.76,17.54Zm7.4,12.82v7.11a1.4,1.4,0,0,1-.34-.13l-5.87-3.39Zm7.4-5.18-.39.23L19.17,25.4V17.77L25.78,14Zm.79-16.18,5.82,3.36a1.46,1.46,0,0,1,.34.26l-6.16,3.56Zm6.56,4.31a1.86,1.86,0,0,1,0,.42v6.72L27,13.27Z" transform="translate(-3.58 -0.36)"/></svg>