<svg id="Layer_1" data-name="Layer 1" xmlns="http://www.w3.org/2000/svg" viewBox="0 0 275.02 32.52"><defs><style>.cls-1{fill:#ededed;}.cls-2{fill:#c4974a;}</style></defs><path class="cls-1" d="M264.57,35.94H22.07A16.31,16.31,0,0,1,5.81,19.67h0A16.31,16.31,0,0,1,22.07,3.41h242.5a16.31,16.31,0,0,1,16.26,16.26h0A16.31,16.31,0,0,1,264.57,35.94Z" transform="translate(-5.81 -3.41)"/><path class="cls-2" d="M266.76,26.88l-4.66-4.66a8.24,8.24,0,1,0-2.27,2.37l4.61,4.61a1.64,1.64,0,1,0,2.32-2.32Zm-11.61-3.47a5.54,5.54,0,1,1,5.54-5.54A5.54,5.54,0,0,1,255.15,23.41Z" transform="translate(-5.81 -3.41)"/></svg>