<svg id="Layer_1" data-name="Layer 1" xmlns="http://www.w3.org/2000/svg" viewBox="0 0 42.31 53.12"><defs><style>.cls-1{fill:#fff;}</style></defs><path class="cls-1" d="M13.09,5.22a.86.86,0,0,0-.81.81v1.6h1.63V6A.86.86,0,0,0,13.09,5.22Zm.82,6.26V9.92H12.28v1.56a2.95,2.95,0,1,0,1.63,0Zm-.82,4.26a1.32,1.32,0,1,1,1.33-1.32A1.36,1.36,0,0,1,13.09,15.74ZM21.5,5.22a.86.86,0,0,0-.81.81v1.6H22.3V6A.86.86,0,0,0,21.5,5.22Zm.8,6.26V9.92H20.69v1.56a2.94,2.94,0,1,0,1.61,0Zm-.8,4.26a1.32,1.32,0,1,1,1.31-1.32A1.35,1.35,0,0,1,21.5,15.74ZM29.89,5.22a.86.86,0,0,0-.81.81v1.6H30.7V6A.86.86,0,0,0,29.89,5.22Zm.81,6.26V9.92H29.08v1.56a2.93,2.93,0,1,0,1.62,0Zm-.81,4.26a1.32,1.32,0,1,1,0-2.63,1.32,1.32,0,0,1,0,2.63ZM38.28,5.22a.86.86,0,0,0-.81.81v1.6h1.62V6A.86.86,0,0,0,38.28,5.22Zm.81,6.26V9.92H37.47v1.56a2.93,2.93,0,1,0,1.62,0Zm-.81,4.26a1.32,1.32,0,1,1,0-2.63,1.32,1.32,0,0,1,0,2.63Zm.81-4.26V9.92H37.47v1.56a2.93,2.93,0,1,0,1.62,0Zm-.81,4.26a1.32,1.32,0,1,1,0-2.63,1.32,1.32,0,0,1,0,2.63ZM30.7,11.48V9.92H29.08v1.56a2.93,2.93,0,1,0,1.62,0Zm-.81,4.26a1.32,1.32,0,1,1,0-2.63,1.32,1.32,0,0,1,0,2.63ZM22.3,11.48V9.92H20.69v1.56a2.94,2.94,0,1,0,1.61,0Zm-.8,4.26a1.32,1.32,0,1,1,1.31-1.32A1.35,1.35,0,0,1,21.5,15.74Zm-7.59-4.26V9.92H12.28v1.56a2.95,2.95,0,1,0,1.63,0Zm-.82,4.26a1.32,1.32,0,1,1,1.33-1.32A1.36,1.36,0,0,1,13.09,15.74Z" transform="translate(-4.24 -5.22)"/><path class="cls-1" d="M40.55,26.29a.86.86,0,0,1-.81.81h-28a.81.81,0,1,1,0-1.62h28A.86.86,0,0,1,40.55,26.29Z" transform="translate(-4.24 -5.22)"/><path class="cls-1" d="M40.55,30.43a.79.79,0,0,1-.81.81h-28a.81.81,0,0,1,0-1.62h28A.86.86,0,0,1,40.55,30.43Z" transform="translate(-4.24 -5.22)"/><path class="cls-1" d="M40.55,34.68a.86.86,0,0,1-.81.81h-28a.81.81,0,1,1,0-1.62h28A.86.86,0,0,1,40.55,34.68Z" transform="translate(-4.24 -5.22)"/><path class="cls-1" d="M40.55,38.82a.86.86,0,0,1-.81.81h-28a.81.81,0,1,1,0-1.62h28A.86.86,0,0,1,40.55,38.82Z" transform="translate(-4.24 -5.22)"/><path class="cls-1" d="M40.55,43.07a.86.86,0,0,1-.81.81h-28a.81.81,0,1,1,0-1.62h28A.86.86,0,0,1,40.55,43.07Z" transform="translate(-4.24 -5.22)"/><path class="cls-1" d="M40.55,47.21a.86.86,0,0,1-.81.81h-28a.81.81,0,1,1,0-1.62h28A.86.86,0,0,1,40.55,47.21Z" transform="translate(-4.24 -5.22)"/><path class="cls-1" d="M42.66,58.34H8.13a3.9,3.9,0,0,1-3.89-3.89V11.66A3.9,3.9,0,0,1,8.13,7.77H42.66a3.89,3.89,0,0,1,3.89,3.89V54.45A3.89,3.89,0,0,1,42.66,58.34ZM8.13,9.77a1.89,1.89,0,0,0-1.89,1.89V54.45a1.89,1.89,0,0,0,1.89,1.89H42.66a1.9,1.9,0,0,0,1.9-1.89V11.66a1.9,1.9,0,0,0-1.9-1.89Z" transform="translate(-4.24 -5.22)"/></svg>