<svg id="Layer_1" data-name="Layer 1" xmlns="http://www.w3.org/2000/svg" viewBox="0 0 67.59 67.7"><defs><style>.cls-1{fill:#1e211c;}.cls-2{fill:#c4974a;}</style></defs><path class="cls-1" d="M49.66,30.25a4.19,4.19,0,0,0,4.2-4.19,4.29,4.29,0,0,0-4.2-4.31,4.2,4.2,0,0,0-4.2,4.2A4.29,4.29,0,0,0,49.66,30.25Zm0-5.63A1.44,1.44,0,1,1,48.34,26,1.27,1.27,0,0,1,49.66,24.62Z" transform="translate(-17.3 -16.12)"/><path class="cls-2" d="M84.89,76.2a3.81,3.81,0,0,0-2.76-3.65v-55a1.46,1.46,0,0,0-1.43-1.43H75.06a1.46,1.46,0,0,0-.88.33l-5.63,4.19A1.39,1.39,0,0,0,68.66,23l2.43,1.66-2.43,1.55a1.34,1.34,0,0,0,0,2.32l3.09,2-2,3.1A1.35,1.35,0,0,0,70,35.33l1.77,1.77L70,38.87a1.41,1.41,0,0,0,0,2l1.77,1.76L70,44.39a1.35,1.35,0,0,0-.22,1.66l1,1.87L68.66,50a1.41,1.41,0,0,0,0,2l2,2-2.2,3.31a1.36,1.36,0,0,0,.22,1.77l1.43,1.43-3.86,2a1.51,1.51,0,0,0-.78,1.22v8.83a3.69,3.69,0,0,0-2.76,3.65v3.64a3,3,0,0,0,.11,1H37.73c1.88-2,2.43-3.42,2-4.63-3.53-9.94-4.08-22.2-4-30.82.11-7.06.77-12.81,1-15.24h3.64L47,40.74a1.26,1.26,0,0,0,1.22.67h9.83A1.46,1.46,0,0,0,59.49,40V17.55a1.46,1.46,0,0,0-1.43-1.43H18.74a1.46,1.46,0,0,0-1.44,1.43V28.82a1.46,1.46,0,0,0,1.44,1.43h4.2V80.94h-4.2a1.44,1.44,0,1,0,0,2.88H83.46a1.46,1.46,0,0,0,1.43-1.44,1.25,1.25,0,0,0-.33-.88A3.56,3.56,0,0,0,84.89,80V76.2Zm-12-13.81a1.36,1.36,0,0,0,.34-2.21l-2-2,2.21-3.31a1.36,1.36,0,0,0-.22-1.77l-1.77-1.76,1.77-1.77a1.35,1.35,0,0,0,.22-1.66l-1-1.87,2.1-2.1a1.41,1.41,0,0,0,0-2l-1.77-1.77,1.77-1.76a1.41,1.41,0,0,0,0-2l-1.88-2.21,2.21-3.31a1.44,1.44,0,0,0-.44-2L72,27.27l2.43-1.66a1.34,1.34,0,0,0,0-2.31l-2.54-1.55L75.5,19h3.76V72.44H77.82V58.3a1.44,1.44,0,0,0-2.87,0v14H67.88V64.82ZM20.17,19h14v4.19a1.44,1.44,0,1,0,2.87,0V19H56.73V38.65H49.11L42.48,28a1.26,1.26,0,0,0-1.21-.66H20.17ZM31.44,80.83v-14a1.44,1.44,0,1,0-2.87,0v14H25.81V30.25H34a146.42,146.42,0,0,0-1,15.13c-.11,8.73.44,21.32,4.08,31.59-.11.66-1.66,2.43-3.42,3.86Zm34.68,0a1,1,0,0,1-1-1V79.4h7.07a1.44,1.44,0,1,0,0-2.87H65.12v-.44a1,1,0,0,1,1-1H81a1,1,0,0,1,1,1v3.64a1,1,0,0,1-1,1H66.12Z" transform="translate(-17.3 -16.12)"/><path class="cls-2" d="M56.73,48.48a4.2,4.2,0,1,0,4.2-4.2A4.2,4.2,0,0,0,56.73,48.48Zm4.2-1.33a1.44,1.44,0,1,1-1.44,1.44A1.39,1.39,0,0,1,60.93,47.15Z" transform="translate(-17.3 -16.12)"/><path class="cls-2" d="M44,71a4.2,4.2,0,1,0,4.2-4.2A4.2,4.2,0,0,0,44,71Zm5.63,0a1.44,1.44,0,1,1-1.43-1.44A1.46,1.46,0,0,1,49.66,71Z" transform="translate(-17.3 -16.12)"/><rect class="cls-1" x="29.6" y="35.23" width="2.76" height="2.76"/><rect class="cls-1" x="29.6" y="40.86" width="2.76" height="2.76"/><rect class="cls-1" x="32.36" y="37.99" width="2.76" height="2.76"/><rect class="cls-1" x="26.73" y="37.99" width="2.76" height="2.76"/></svg>