<svg id="Layer_1" data-name="Layer 1" xmlns="http://www.w3.org/2000/svg" viewBox="0 0 17.93 17.92"><defs><style>.cls-1{fill:#fff;}</style></defs><path class="cls-1" d="M24.1,11.73a6.63,6.63,0,0,0-.41-2.15,4.27,4.27,0,0,0-1-1.54,4.37,4.37,0,0,0-1.53-1A7,7,0,0,0,19,6.63c-1,0-1.32,0-3.82,0s-2.83,0-3.81,0A7,7,0,0,0,9.22,7,4.46,4.46,0,0,0,7.69,8a4.25,4.25,0,0,0-1,1.54,6.37,6.37,0,0,0-.41,2.15c0,1-.06,1.31-.06,3.81s0,2.83.06,3.81a6.49,6.49,0,0,0,.41,2.16,4.21,4.21,0,0,0,1,1.53,4.32,4.32,0,0,0,1.53,1,6.54,6.54,0,0,0,2.16.41c1,.05,1.32.05,3.81.05s2.82,0,3.82-.05A6.42,6.42,0,0,0,21.16,24a4.46,4.46,0,0,0,2.53-2.53,6.74,6.74,0,0,0,.41-2.15c0-1,.06-1.32.06-3.82S24.15,12.71,24.1,11.73Zm-1,7.58a5.62,5.62,0,0,1-.34,1.83A3.38,3.38,0,0,1,22,22.31a3.26,3.26,0,0,1-1.19.77,5.7,5.7,0,0,1-1.82.34c-1,0-1.28.06-3.77.06s-2.78,0-3.76-.06a5.84,5.84,0,0,1-1.83-.34,3.39,3.39,0,0,1-1.94-1.94,5.55,5.55,0,0,1-.35-1.83c0-1,0-1.28,0-3.77s0-2.78,0-3.76A5.49,5.49,0,0,1,7.66,10a3.28,3.28,0,0,1,.76-1.18A3.22,3.22,0,0,1,9.6,8a5.84,5.84,0,0,1,1.83-.34c1,0,1.28,0,3.76,0s2.79,0,3.77,0A5.76,5.76,0,0,1,20.78,8,3.39,3.39,0,0,1,22,8.77,3.28,3.28,0,0,1,22.73,10a5.56,5.56,0,0,1,.34,1.83c0,1,.06,1.27.06,3.76S23.11,18.33,23.07,19.31Z" transform="translate(-6.23 -6.58)"/><path class="cls-1" d="M15.19,11.1a4.45,4.45,0,1,0,4.45,4.44A4.44,4.44,0,0,0,15.19,11.1Zm0,7.85a3.41,3.41,0,1,1,3.42-3.41A3.41,3.41,0,0,1,15.19,19Z" transform="translate(-6.23 -6.58)"/><path class="cls-1" d="M21,10.59a.8.8,0,0,1-1.6,0,.8.8,0,1,1,1.6,0Z" transform="translate(-6.23 -6.58)"/></svg>