<svg id="Layer_1" data-name="Layer 1" xmlns="http://www.w3.org/2000/svg" viewBox="0 0 19.08 21.57"><defs><style>.cls-1{fill:#fff;}</style></defs><path class="cls-1" d="M24.69,9.56a1.6,1.6,0,0,0-.1-.23l0,0h0a.91.91,0,0,0-.11-.16A1.49,1.49,0,0,0,24,8.79L20.39,6.68l-.74-.43L16,4.14h0A1.68,1.68,0,0,0,15.49,4l-.24,0L15,4a1.78,1.78,0,0,0-.49.17L10.85,6.25l-.74.43L6.45,8.79a1.45,1.45,0,0,0-.4.34l-.12.16,0,0a1.63,1.63,0,0,0-.11.23,1.48,1.48,0,0,0-.09.51v9.3a1.5,1.5,0,0,0,.09.52,2.4,2.4,0,0,0,.11.23l0,0,.12.16a1.45,1.45,0,0,0,.4.34l3.66,2.11.24.14.25.15h0l.25.14,3.65,2.11.05,0a1.7,1.7,0,0,0,.45.15l.25,0,.24,0a1.77,1.77,0,0,0,.46-.15l3.7-2.14.24-.14h0l.25-.15.25-.14L24,20.66a1.49,1.49,0,0,0,.41-.34l.11-.16v0l0,0a2.29,2.29,0,0,0,.1-.23,1.3,1.3,0,0,0,.1-.52v-9.3A1.29,1.29,0,0,0,24.69,9.56ZM20.14,22.34v-4.5L24,20.07a1.46,1.46,0,0,1-.21.16Zm4.15-3a1.24,1.24,0,0,1,0,.27l-3.87-2.23,3.9-2.26Zm-4.64,3-3.78-2.18-.13-.07,3.91-2.25ZM15.71,24.9a.83.83,0,0,1-.22.08V20.52l3.91,2.25-3.66,2.11Zm-5.36-2.56L6.7,20.23a.83.83,0,0,1-.21-.16L8,19.21l2.39-1.37ZM6.2,15.15l3.91,2.26L6.24,19.64a1.26,1.26,0,0,1,0-.27Zm4.15-8v4.5L6.49,9.38a.83.83,0,0,1,.21-.16Zm5.14-2.64a1.06,1.06,0,0,1,.25.09L19.4,6.68,15.49,8.93ZM24,14.72,20.14,17V12.47Zm-9.41,5.44-3.78,2.18v-4.5l3.9,2.25Zm.37-.5-3.9-2.25-.25-.15V12.47L15,14.87ZM11.1,12,15,9.79l.25-.14.24.14L19.4,12l-4.15,2.4Zm3.65-2.68-3.9,2.25V7.11Zm1,0,3.91-2.25v4.5Zm-1-4.8A1,1,0,0,1,15,4.47V8.93L11.1,6.68l3.65-2.11ZM6.2,10.07a1.17,1.17,0,0,1,0-.26L10.11,12,6.2,14.3Zm4.15,2.4V17l-3.9-2.26Zm4.65,8V25a.83.83,0,0,1-.22-.08L11.1,22.77Zm4.65-3.26-.25.15-3.91,2.25V14.87l4.16-2.4Zm.49-10.15L23.8,9.22a1.46,1.46,0,0,1,.21.16l-3.87,2.23Zm4.12,2.7a1.15,1.15,0,0,1,0,.26V14.3L20.39,12Z" transform="translate(-5.71 -3.94)"/></svg>