<svg id="Layer_1" data-name="Layer 1" xmlns="http://www.w3.org/2000/svg" viewBox="0 0 26.46 26.46"><defs><style>.cls-1{fill:none;stroke:#fff;stroke-miterlimit:10;stroke-width:0.5px;}.cls-2{fill:#fff;}</style></defs><circle class="cls-1" cx="13.23" cy="13.23" r="12.98"/><path class="cls-2" d="M21,27.22a7.08,7.08,0,0,1-2.66-.8,16,16,0,0,1-7.27-7.06A7.25,7.25,0,0,1,10.2,17a3.57,3.57,0,0,1,1-3.07c.25-.26.5-.52.77-.77a.58.58,0,0,1,.93,0q1.23,1.2,2.43,2.43a.59.59,0,0,1,0,.95c-.44.45-.89.89-1.34,1.34a1.25,1.25,0,0,0-.12,1.81,18,18,0,0,0,4,3.91,1.24,1.24,0,0,0,1.73-.15l1.26-1.27c.39-.39.68-.4,1.06,0l2.34,2.34a.62.62,0,0,1,0,1,5.92,5.92,0,0,1-1.63,1.31A3.88,3.88,0,0,1,21,27.22Z" transform="translate(-4.13 -6.44)"/></svg>