<svg id="Layer_1" data-name="Layer 1" xmlns="http://www.w3.org/2000/svg" viewBox="0 0 31.51 31.5"><defs><style>.cls-1{fill:#fff;}</style></defs><path class="cls-1" d="M34.45,10.93a11.62,11.62,0,0,0-.72-3.79A7.57,7.57,0,0,0,32,4.45a7.48,7.48,0,0,0-2.69-1.76A11.82,11.82,0,0,0,25.5,2c-1.74-.08-2.31-.09-6.71-.09s-5,0-6.7.09a11.77,11.77,0,0,0-3.78.72,7.61,7.61,0,0,0-2.7,1.76A7.26,7.26,0,0,0,3.87,7.14a11.61,11.61,0,0,0-.73,3.79c-.08,1.73-.1,2.3-.1,6.7s0,5,.1,6.69a11.5,11.5,0,0,0,.73,3.79,7.3,7.3,0,0,0,1.74,2.7,7.61,7.61,0,0,0,2.7,1.76,11.82,11.82,0,0,0,3.78.72c1.74.08,2.33.09,6.7.09s5,0,6.71-.09a11.82,11.82,0,0,0,3.78-.72A7.48,7.48,0,0,0,32,30.81a7.61,7.61,0,0,0,1.76-2.7,11.49,11.49,0,0,0,.72-3.77c.08-1.74.1-2.32.1-6.71S34.53,12.66,34.45,10.93ZM32.63,24.25A9.55,9.55,0,0,1,32,27.46a5.65,5.65,0,0,1-1.34,2.06,5.47,5.47,0,0,1-2.08,1.35,9.57,9.57,0,0,1-3.21.6c-1.73.08-2.24.1-6.62.1s-4.88,0-6.62-.1a9.61,9.61,0,0,1-3.2-.6A5.51,5.51,0,0,1,6.9,29.52a5.53,5.53,0,0,1-1.34-2.06A9.42,9.42,0,0,1,5,24.25c-.08-1.73-.09-2.25-.09-6.62s0-4.89.09-6.62A9.36,9.36,0,0,1,5.56,7.8,5.48,5.48,0,0,1,6.9,5.73,5.63,5.63,0,0,1,9,4.38a9.88,9.88,0,0,1,3.2-.6c1.74-.07,2.26-.09,6.62-.09s4.89,0,6.62.09a9.9,9.9,0,0,1,3.21.6A5.71,5.71,0,0,1,30.7,5.73,5.61,5.61,0,0,1,32,7.8,9.49,9.49,0,0,1,32.63,11c.08,1.73.11,2.24.11,6.62S32.71,22.52,32.63,24.25Z" transform="translate(-3.04 -1.88)"/><path class="cls-1" d="M18.79,9.82a7.81,7.81,0,1,0,7.82,7.81A7.81,7.81,0,0,0,18.79,9.82Zm0,13.81a6,6,0,1,1,6-6A6,6,0,0,1,18.79,23.63Z" transform="translate(-3.04 -1.88)"/><path class="cls-1" d="M28.9,8.93a1.4,1.4,0,1,1-1.39-1.4A1.39,1.39,0,0,1,28.9,8.93Z" transform="translate(-3.04 -1.88)"/></svg>