<svg id="Layer_1" data-name="Layer 1" xmlns="http://www.w3.org/2000/svg" viewBox="0 0 98.1 86.81"><defs><style>.cls-1{fill:#fff;}</style></defs><path class="cls-1" d="M27.66,41.23a3.59,3.59,0,1,1-3.59-3.59A3.59,3.59,0,0,1,27.66,41.23Z" transform="translate(-4.6 -7.35)"/><path class="cls-1" d="M14.38,20.5H24.56a8.9,8.9,0,0,1,8.9,8.9v5.11a0,0,0,0,1,0,0h-28a0,0,0,0,1,0,0V29.4A8.9,8.9,0,0,1,14.38,20.5Z"/><line class="cls-1" x1="19.04" y1="21.19" x2="19.04"/><path class="cls-1" d="M24,28.54h-.76V7.73a.38.38,0,0,1,.38-.38h0a.38.38,0,0,1,.38.38Z" transform="translate(-4.6 -7.35)"/><path class="cls-1" d="M4.6,67.27A2.58,2.58,0,0,0,4.78,67a6.14,6.14,0,0,1,6.32-4.68H64.31V59.2h-1c-2.71,0-5.43,0-8.14,0a6.08,6.08,0,0,1-6.07-6q-.06-9.3,0-18.62a6.06,6.06,0,0,1,6.06-6q15.38,0,30.75,0A6.05,6.05,0,0,1,92,34.6c0,6.15,0,12.29,0,18.44a6.1,6.1,0,0,1-6.15,6.15c-2.71,0-5.43,0-8.14,0h-1v3.07H96.08c4.08,0,6.61,2.56,6.61,6.67,0,10.88,0,12.14,0,23a6.57,6.57,0,0,1,0,.77,1.5,1.5,0,0,1-1.55,1.39,1.48,1.48,0,0,1-1.48-1.37,6.13,6.13,0,0,1,0-1V69.15c0-2.7-1.08-3.8-3.75-3.8H11.4c-2.61,0-3.74,1.12-3.74,3.72,0,10.85,0,12.08,0,22.93a2.89,2.89,0,0,1-.56,1.73c-.65.75-1.56.49-2.48-.55ZM52.11,49.91H88.89c0-5.21,0-10.36,0-15.51a3,3,0,0,0-3-2.84q-15.33,0-30.65,0a3,3,0,0,0-3.06,3c0,.9,0,1.79,0,2.69Zm0,3.2a3,3,0,0,0,3.24,3H76.18c3.19,0,6.38,0,9.58,0a3,3,0,0,0,3.09-3Zm21.38,6.16h-6v2.95h6Z" transform="translate(-4.6 -7.35)"/><path class="cls-1" d="M23.69,56.13H17.18c-1.15,0-1.83-.57-1.85-1.5s.69-1.57,1.88-1.57q6.55,0,13.12,0c1.14,0,1.83.57,1.85,1.5s-.69,1.56-1.88,1.57Z" transform="translate(-4.6 -7.35)"/><path class="cls-1" d="M23.66,60.74H17.24c-1.21,0-1.91-.58-1.91-1.54s.7-1.53,1.91-1.53q6.51,0,13,0c1.21,0,1.91.57,1.91,1.53s-.71,1.53-1.91,1.54Z" transform="translate(-4.6 -7.35)"/><path class="cls-1" d="M64.7,48.44c-1.42,0-2.18-1.16-1.69-2.16a3.13,3.13,0,0,1,.65-.81q5.76-5.8,11.57-11.58a2.57,2.57,0,0,1,1.45-.76A1.46,1.46,0,0,1,78,35.3a3.85,3.85,0,0,1-.65.81q-5.74,5.76-11.5,11.51A7.82,7.82,0,0,1,64.7,48.44Z" transform="translate(-4.6 -7.35)"/><path class="cls-1" d="M11.09,67.9a1,1,0,0,0-1,1q0,11.71,0,23.42a1.56,1.56,0,0,0,1.5,1.76c.92,0,1.54-.68,1.56-1.79,0-.91,0-1.83,0-2.78H37.68c0,1,0,1.88,0,2.77,0,1.12.62,1.81,1.55,1.8s1.51-.71,1.51-1.84q0-11.67,0-23.34a1,1,0,0,0-1-1ZM37.63,86.33H13.22v-6H37.63Zm0-9.18H13.22V71.09H37.63Z" transform="translate(-4.6 -7.35)"/><path class="cls-1" d="M25.37,75.64c-.51,0-1,0-1.53,0a1.53,1.53,0,0,1-1.49-1.56,1.49,1.49,0,0,1,1.47-1.48c1.05,0,2.11,0,3.16,0a1.49,1.49,0,0,1,1.49,1.55A1.53,1.53,0,0,1,27,75.64C26.46,75.68,25.92,75.64,25.37,75.64Z" transform="translate(-4.6 -7.35)"/><path class="cls-1" d="M25.45,81.81c.54,0,1.09,0,1.62,0a1.47,1.47,0,0,1,1.39,1.55,1.42,1.42,0,0,1-1.36,1.47,28.8,28.8,0,0,1-3.35,0,1.48,1.48,0,0,1-1.4-1.55,1.51,1.51,0,0,1,1.47-1.48c.54,0,1.08,0,1.63,0Z" transform="translate(-4.6 -7.35)"/></svg>