<svg id="Layer_1" data-name="Layer 1" xmlns="http://www.w3.org/2000/svg" viewBox="0 0 54.98 70.68"><defs><style>.cls-1{fill:#fff;}</style></defs><path class="cls-1" d="M63.8,76.59H55.15v-7H28.57v7H19.91A5.55,5.55,0,0,1,14.37,71V45.63a5.55,5.55,0,0,1,5.54-5.55H63.8a5.56,5.56,0,0,1,5.55,5.55V71A5.56,5.56,0,0,1,63.8,76.59Zm-6.65-2H63.8A3.55,3.55,0,0,0,67.35,71V45.63a3.55,3.55,0,0,0-3.55-3.55H19.91a3.55,3.55,0,0,0-3.54,3.55V71a3.55,3.55,0,0,0,3.54,3.55h6.66v-7H57.15Z" transform="translate(-14.37 -7.65)"/><path class="cls-1" d="M53,78.33H30.75v-7H53Zm-20.28-2H51v-3H32.75Z" transform="translate(-14.37 -7.65)"/><path class="cls-1" d="M25.81,38.74H20.12V34.5a4.94,4.94,0,0,1,4.94-4.93h.75Zm-4.19-1.5h2.69V31.15a3.45,3.45,0,0,0-2.69,3.35Z" transform="translate(-14.37 -7.65)"/><path class="cls-1" d="M63.59,38.74H57.91V29.57h.75a4.93,4.93,0,0,1,4.93,4.93Zm-4.18-1.5h2.68V34.5a3.45,3.45,0,0,0-2.68-3.35Z" transform="translate(-14.37 -7.65)"/><path class="cls-1" d="M56,38.74H27.75V10.92a3.23,3.23,0,0,1,3.17-3.27H52.79A3.23,3.23,0,0,1,56,10.92Zm-26.72-1.5H54.47V10.92a1.72,1.72,0,0,0-1.68-1.77H30.92a1.72,1.72,0,0,0-1.67,1.77Z" transform="translate(-14.37 -7.65)"/><path class="cls-1" d="M50.85,32.65h-18a1.36,1.36,0,1,1,0-2.72h18a1.36,1.36,0,0,1,0,2.72Zm-18-1.72a.36.36,0,0,0,0,.72h18a.36.36,0,0,0,0-.72Z" transform="translate(-14.37 -7.65)"/><path class="cls-1" d="M50.85,28.29h-18a1.36,1.36,0,1,1,0-2.72h18a1.36,1.36,0,0,1,0,2.72Zm-18-1.72a.36.36,0,0,0,0,.72h18a.36.36,0,0,0,0-.72Z" transform="translate(-14.37 -7.65)"/><path class="cls-1" d="M50.85,23.94h-18a1.36,1.36,0,0,1,0-2.72h18a1.36,1.36,0,1,1,0,2.72Zm-18-1.72a.36.36,0,1,0,0,.72h18a.36.36,0,1,0,0-.72Z" transform="translate(-14.37 -7.65)"/><path class="cls-1" d="M50.85,19.59h-18a1.36,1.36,0,1,1,0-2.72h18a1.36,1.36,0,0,1,0,2.72Zm-18-1.72a.36.36,0,0,0-.36.36.36.36,0,0,0,.36.36h18a.36.36,0,0,0,.36-.36.36.36,0,0,0-.36-.36Z" transform="translate(-14.37 -7.65)"/><path class="cls-1" d="M50.85,15.23h-18a1.36,1.36,0,0,1,0-2.72h18a1.36,1.36,0,0,1,0,2.72Zm-18-1.72a.36.36,0,0,0,0,.72h18a.36.36,0,1,0,0-.72Z" transform="translate(-14.37 -7.65)"/></svg>