<svg id="Layer_1" data-name="Layer 1" xmlns="http://www.w3.org/2000/svg" viewBox="0 0 28.97 28.89"><defs><style>.cls-1{fill:#fff;}</style></defs><path class="cls-1" d="M27.34,32.15a.83.83,0,0,1-.6-.21.87.87,0,0,1-.21-.63q0-4.66,0-9.32a7.84,7.84,0,0,0-.25-2.19,2.17,2.17,0,0,0-2.39-1.7A2.67,2.67,0,0,0,21,20.82a10.85,10.85,0,0,0-.09,1.4v3c0,2,0,4,0,6a.83.83,0,0,1-.22.64.84.84,0,0,1-.63.22c-1.7,0-3.39,0-5.08,0a.89.89,0,0,1-.61-.21.83.83,0,0,1-.21-.61v-18a.86.86,0,0,1,.21-.62.9.9,0,0,1,.63-.21q2.41,0,4.83,0a.88.88,0,0,1,.63.22.83.83,0,0,1,.2.63c0,.3,0,.59,0,.88.11-.12.21-.23.33-.34a6.62,6.62,0,0,1,4.69-1.85,10.88,10.88,0,0,1,2.88.36,5.81,5.81,0,0,1,4.13,4.33,17,17,0,0,1,.53,4.72v4.75c0,1.68,0,3.37,0,5.06a.86.86,0,0,1-.22.63.84.84,0,0,1-.64.22q-2.52,0-5,0Zm2.4-.95h2.58v-5c0-1.58,0-3.16,0-4.74A17,17,0,0,0,31.84,17a4.93,4.93,0,0,0-3.5-3.69A9.49,9.49,0,0,0,25.72,13a5.66,5.66,0,0,0-4,1.59,10,10,0,0,0-.68.75l-.4.48-.82.92V14.92c0-.48,0-1,0-1.44H15.14c0,5.95,0,11.84,0,17.73,1.66,0,3.27,0,4.88,0v-9a12.79,12.79,0,0,1,.09-1.52,3.59,3.59,0,0,1,3.73-3.53,3.05,3.05,0,0,1,3.33,2.37A8.54,8.54,0,0,1,27.46,22c0,3.08,0,6.15,0,9.23Z" transform="translate(-4.29 -3.26)"/><path class="cls-1" d="M10.62,32.15h0q-2.52,0-5,0A.79.79,0,0,1,5,31.94a.81.81,0,0,1-.21-.61q0-9,0-18a.77.77,0,0,1,.21-.6.71.71,0,0,1,.58-.21c1.71,0,3.41,0,5.12,0a.77.77,0,0,1,.84.88q0,3.49,0,7v4q0,3.42,0,6.85a.78.78,0,0,1-.87.89ZM8,31.2l2.53,0q0-3.41,0-6.81v-4q0-3.46,0-6.93H5.68c0,5.94,0,11.84,0,17.73Z" transform="translate(-4.29 -3.26)"/><path class="cls-1" d="M8.12,10.91a3.81,3.81,0,0,1-2.7-6.52,3.77,3.77,0,0,1,2.7-1.13h0A3.82,3.82,0,0,1,12,7.07h0a3.84,3.84,0,0,1-3.83,3.84Zm0-6.72A2.92,2.92,0,0,0,5.23,7.1,2.92,2.92,0,0,0,8.12,10h0a2.89,2.89,0,0,0,2.05-.86,2.92,2.92,0,0,0,.85-2h0A2.9,2.9,0,0,0,8.13,4.19Z" transform="translate(-4.29 -3.26)"/></svg>