<svg id="Layer_1" data-name="Layer 1" xmlns="http://www.w3.org/2000/svg" viewBox="0 0 83.37 67.27"><defs><style>.cls-1{fill:#c59748;}</style></defs><path class="cls-1" d="M90.67,84h-5V21.73a1.66,1.66,0,1,0-3.32,0V43.57H78.42V21.86a1.66,1.66,0,0,0-1.66-1.66H54a1.67,1.67,0,0,0-1.66,1.66V43.57H48.41V21.86a1.67,1.67,0,0,0-1.66-1.66H24a1.67,1.67,0,0,0-1.67,1.66V43.57H18.67V21.73a1.66,1.66,0,0,0-3.32,0V84H10.62a1.66,1.66,0,0,0,0,3.32H24A1.66,1.66,0,0,0,24,84H18.67V79.18H82.34V84h-5a1.66,1.66,0,0,0,0,3.32H90.67a1.66,1.66,0,0,0,0-3.32ZM63.42,23.52h3.91v4.41H63.42Zm-7.78,0h4.45v5.62a.64.64,0,0,0,0,.2h0v0a.78.78,0,0,0,0,.22,1.66,1.66,0,0,0,1.67,1.66H69a1.66,1.66,0,0,0,1.66-1.66.78.78,0,0,0,0-.22v0h0a.64.64,0,0,0,0-.2V23.52H75.1V43.57H55.64Zm-22.23,0h3.91v4.41H33.41Zm-7.77,0h4.45v5.62a.91.91,0,0,0,0,.23h0a.71.71,0,0,0,0,.21,1.66,1.66,0,0,0,1.66,1.66H39a1.66,1.66,0,0,0,1.66-1.66.78.78,0,0,0,0-.22.91.91,0,0,0,0-.23V23.52h4.45V43.57H25.64ZM45.09,75.86H25.64V55.14h4.45v6.29a.75.75,0,0,0,0,.2h0v0a.71.71,0,0,0,0,.21,1.66,1.66,0,0,0,1.66,1.66H39a1.66,1.66,0,0,0,1.66-1.66.71.71,0,0,0,0-.21v0h0a.75.75,0,0,0,0-.2V55.14h4.45ZM33.41,60.21V55.14h3.91v5.07ZM75.1,75.86H55.64V55.14h4.45v6.29a.82.82,0,0,0,0,.21v0a.71.71,0,0,0,0,.21,1.66,1.66,0,0,0,1.67,1.66H69a1.66,1.66,0,0,0,1.66-1.66.71.71,0,0,0,0-.21v0a.82.82,0,0,0,0-.21V55.14H75.1ZM63.42,60.21V55.14h3.91v5.07Zm15,15.65V53.48a1.66,1.66,0,0,0-1.66-1.67H54a1.66,1.66,0,0,0-1.66,1.67V75.86H48.41V53.48a1.66,1.66,0,0,0-1.66-1.67H24a1.67,1.67,0,0,0-1.67,1.67,1.27,1.27,0,0,0,.11.54h0a1.16,1.16,0,0,0-.11.52V75.86H18.67v-29H82.34v29Z" transform="translate(-8.96 -20.07)"/></svg>