<svg id="Layer_1" data-name="Layer 1" xmlns="http://www.w3.org/2000/svg" viewBox="0 0 57.16 59.68"><defs><style>.cls-1{fill:#c4974a;}</style></defs><path class="cls-1" d="M42.15,47.67a1.66,1.66,0,0,1-1.56,1.56,1.56,1.56,0,1,1,1.56-1.56Z" transform="translate(-12.01 -11.63)"/><path class="cls-1" d="M65.09,11.63h-49A4.08,4.08,0,0,0,12,15.71V48.28a4.08,4.08,0,0,0,4.08,4.08H30.27a3.37,3.37,0,0,0,3.36,3.23H35.3V57h-12a3.3,3.3,0,0,0-3.37,2.94l-1.11,7.44a3.16,3.16,0,0,0,.76,2.74,3.47,3.47,0,0,0,2.61,1.19H59a3.38,3.38,0,0,0,3.37-3.91L61.3,59.94A3.48,3.48,0,0,0,57.93,57h-12V55.59h1.67a3.37,3.37,0,0,0,3.36-3.23H65.09a4.08,4.08,0,0,0,4.08-4.08V15.71A4.08,4.08,0,0,0,65.09,11.63ZM57.93,58.71A1.64,1.64,0,0,1,59.6,60.1l.91,7.48a1.49,1.49,0,0,1-.37,1.34,1.28,1.28,0,0,1-1.2.58H22a1.66,1.66,0,0,1-1.57-1.93l1.11-7.44a1.79,1.79,0,0,1,1.67-1.42ZM37,56.9V55.59h7.06V56.9Zm10.54-3.12h-14A1.57,1.57,0,0,1,32,52.36H49.1A1.55,1.55,0,0,1,47.55,53.78Zm19.91-5.5a2.44,2.44,0,0,1-2.37,2.37h-49a2.44,2.44,0,0,1-2.37-2.37V15.71a2.44,2.44,0,0,1,2.37-2.37h49a2.44,2.44,0,0,1,2.37,2.37Z" transform="translate(-12.01 -11.63)"/><path class="cls-1" d="M65.34,43.91V16.22a.91.91,0,0,0-.86-.86H16.59a.9.9,0,0,0-.85.86V43.94a.9.9,0,0,0,.85.86H64.48a.9.9,0,0,0,.75-.36A.6.6,0,0,0,65.34,43.91Zm-1.61-.82H17.55v-26H62.38L45,34.53a1,1,0,0,0,0,1.22.76.76,0,0,0,.58.28,1,1,0,0,0,.58-.28L63.73,18.23Z" transform="translate(-12.01 -11.63)"/><path class="cls-1" d="M51.38,24.42,38,37.67a1,1,0,0,1-.58.27.78.78,0,0,1-.58-.27,1,1,0,0,1,0-1.23L50.09,23.2a.89.89,0,0,1,1.29,1.22Z" transform="translate(-12.01 -11.63)"/><path class="cls-1" d="M27.38,64.81H24.86a.65.65,0,0,0-.6.61v2.52a.65.65,0,0,0,.6.6h2.52a.65.65,0,0,0,.61-.6V65.42A.66.66,0,0,0,27.38,64.81Zm-.6,2.42H25.47V65.92h1.31Z" transform="translate(-12.01 -11.63)"/><path class="cls-1" d="M33,64.81H30.51a.66.66,0,0,0-.61.61v2.52a.65.65,0,0,0,.61.6H33a.65.65,0,0,0,.6-.6V65.42A.65.65,0,0,0,33,64.81Zm-.61,2.42H31.11V65.92h1.31Z" transform="translate(-12.01 -11.63)"/><path class="cls-1" d="M27.38,59.77H24.86a.65.65,0,0,0-.6.61V62.9a.65.65,0,0,0,.6.6h2.52a.65.65,0,0,0,.61-.6V60.38A.66.66,0,0,0,27.38,59.77Zm-.6,2.42H25.47V60.88h1.31Z" transform="translate(-12.01 -11.63)"/><path class="cls-1" d="M33,59.77H30.51a.66.66,0,0,0-.61.61V62.9a.65.65,0,0,0,.61.6H33a.65.65,0,0,0,.6-.6V60.38A.65.65,0,0,0,33,59.77Zm-.61,2.42H31.11V60.88h1.31Z" transform="translate(-12.01 -11.63)"/><path class="cls-1" d="M38.67,59.77H36.15a.65.65,0,0,0-.6.61V62.9a.65.65,0,0,0,.6.6h2.52a.58.58,0,0,0,.61-.6V60.38A.65.65,0,0,0,38.67,59.77Zm-.6,2.42H36.76V60.88h1.31Z" transform="translate(-12.01 -11.63)"/><path class="cls-1" d="M44.92,62.9V60.38a.65.65,0,0,0-.6-.61H41.8a.66.66,0,0,0-.61.61V62.9a.65.65,0,0,0,.61.6h2.52C44.72,63.5,45,63.2,44.92,62.9Zm-1.1-.71H42.51V60.88h1.31Z" transform="translate(-12.01 -11.63)"/><path class="cls-1" d="M50.07,59.77H47.55a.65.65,0,0,0-.61.61V62.9a.65.65,0,0,0,.61.6h2.52a.65.65,0,0,0,.6-.6V60.38A.65.65,0,0,0,50.07,59.77Zm-.61,2.42H48.15V60.88h1.31Z" transform="translate(-12.01 -11.63)"/><path class="cls-1" d="M55.71,59.77H53.19a.65.65,0,0,0-.6.61V62.9a.65.65,0,0,0,.6.6h2.52a.65.65,0,0,0,.61-.6V60.38A.65.65,0,0,0,55.71,59.77Zm-.6,2.42H53.8V60.88h1.31Z" transform="translate(-12.01 -11.63)"/><path class="cls-1" d="M44.92,67.94V65.42a.65.65,0,0,0-.6-.61H36.15a.65.65,0,0,0-.6.61v2.52a.65.65,0,0,0,.6.6h8.17C44.72,68.54,45,68.24,44.92,67.94Zm-1.2-.71h-7V65.92h7Z" transform="translate(-12.01 -11.63)"/><path class="cls-1" d="M50.07,64.81H47.55a.66.66,0,0,0-.61.61v2.52a.65.65,0,0,0,.61.6h2.52a.65.65,0,0,0,.6-.6V65.42A.65.65,0,0,0,50.07,64.81Zm-.61,2.42H48.15V65.92h1.31Z" transform="translate(-12.01 -11.63)"/><path class="cls-1" d="M55.71,64.81H53.19a.65.65,0,0,0-.6.61v2.52a.65.65,0,0,0,.6.6h2.52a.65.65,0,0,0,.61-.6V65.42A.66.66,0,0,0,55.71,64.81Zm-.6,2.42H53.8V65.92h1.31Z" transform="translate(-12.01 -11.63)"/></svg>
