<svg id="Layer_1" data-name="Layer 1" xmlns="http://www.w3.org/2000/svg" viewBox="0 0 275.02 32.52"><defs><style>.cls-1{fill:#ededed;}.cls-2{fill:#e5282e;}</style></defs><path class="cls-1" d="M261,33.7H18.52A16.31,16.31,0,0,1,2.25,17.44h0A16.31,16.31,0,0,1,18.52,1.18H261a16.31,16.31,0,0,1,16.27,16.26h0A16.31,16.31,0,0,1,261,33.7Z" transform="translate(-2.25 -1.18)"/><path class="cls-2" d="M263.21,24.64,258.54,20a8.2,8.2,0,1,0-2.26,2.37L260.89,27a1.64,1.64,0,0,0,2.32-2.32ZM251.6,21.17a5.54,5.54,0,1,1,5.54-5.54A5.54,5.54,0,0,1,251.6,21.17Z" transform="translate(-2.25 -1.18)"/></svg>