<svg xmlns="http://www.w3.org/2000/svg" xmlns:xlink="http://www.w3.org/1999/xlink" viewBox="0 0 965.34 332.33"><defs><style>.cls-1,.cls-16,.cls-19,.cls-20,.cls-22,.cls-23,.cls-29,.cls-4,.cls-5,.cls-7{fill:none;}.cls-2{isolation:isolate;}.cls-3{fill:#dfdfdf;}.cls-4,.cls-5,.cls-7,.cls-8{stroke:#b1abb3;}.cls-14,.cls-16,.cls-17,.cls-19,.cls-20,.cls-23,.cls-25,.cls-29,.cls-4,.cls-5,.cls-7,.cls-8,.cls-9{stroke-miterlimit:10;}.cls-4,.cls-5,.cls-7{stroke-width:2px;}.cls-5{stroke-dasharray:3.91 3.91;}.cls-6,.cls-8{fill:#b1abb3;}.cls-7{stroke-dasharray:3.91 3.91;}.cls-12,.cls-14,.cls-15,.cls-17,.cls-25,.cls-9{fill:#fff;}.cls-12,.cls-22,.cls-23,.cls-9{stroke:#2b2b2b;}.cls-10{mix-blend-mode:multiply;opacity:0.12;}.cls-11,.cls-26{fill:#e5282e;}.cls-12,.cls-22{stroke-linecap:round;stroke-linejoin:round;}.cls-13{clip-path:url(#clip-path);}.cls-14,.cls-16,.cls-17,.cls-19{stroke:#060807;}.cls-17,.cls-19{stroke-width:0.75px;}.cls-18{fill:#060807;}.cls-20{stroke:#e52a2f;}.cls-21{clip-path:url(#clip-path-2);}.cls-24{fill:#2b2b2b;}.cls-25{stroke:#000;}.cls-26{font-size:18px;font-family:IRANSansWebFaNum, "IRANSansWeb(FaNum)";}.cls-27{fill:#1d1d1b;}.cls-28{fill:#5c6aaf;}.cls-29{stroke:#1d1d1b;}.cls-30{fill:#ed712d;}.cls-31{fill:#385369;}.cls-32{fill:#eda886;}</style><clipPath id="clip-path" transform="translate(-45.41 -49.67)"><rect class="cls-1" x="807.87" y="125.03" width="117.05" height="60.67" rx="10.07" transform="translate(1732.78 310.72) rotate(180)"/></clipPath><clipPath id="clip-path-2" transform="translate(-45.41 -49.67)"><rect class="cls-1" x="462.41" y="69.09" width="119.82" height="105.98" rx="10.07" transform="translate(1044.65 244.16) rotate(180)"/></clipPath></defs><g class="cls-2"><g id="Layer_1" data-name="Layer 1"><rect class="cls-3" y="49.79" width="965.34" height="221.62" rx="110.81"/><line class="cls-4" x1="747.76" y1="288.42" x2="749.76" y2="288.42"/><path class="cls-5" d="M799.07,338.09h52.57a17.45,17.45,0,0,0,17.45-17.45V254" transform="translate(-45.41 -49.67)"/><line class="cls-4" x1="823.68" y1="202.42" x2="823.68" y2="200.42"/><polygon class="cls-6" points="739.84 288.42 750.69 282.16 750.69 294.69 739.84 288.42"/><line class="cls-4" x1="404.33" y1="288.42" x2="406.33" y2="288.42"/><path class="cls-5" d="M455.64,338.09h52.57a17.45,17.45,0,0,0,17.45-17.45V254" transform="translate(-45.41 -49.67)"/><line class="cls-4" x1="480.25" y1="202.42" x2="480.25" y2="200.42"/><polygon class="cls-6" points="396.41 288.42 407.26 282.16 407.26 294.69 396.41 288.42"/><line class="cls-4" x1="576.84" y1="32.1" x2="578.84" y2="32.1"/><path class="cls-7" d="M628.15,81.77h52.57a17.45,17.45,0,0,1,17.45,17.45v66.6" transform="translate(-45.41 -49.67)"/><line class="cls-4" x1="652.76" y1="118.1" x2="652.76" y2="120.1"/><polygon class="cls-6" points="568.92 32.1 579.76 38.36 579.76 25.84 568.92 32.1"/><line class="cls-4" x1="233.03" y1="32.36" x2="235.03" y2="32.36"/><path class="cls-7" d="M284.35,82h52.56a17.46,17.46,0,0,1,17.46,17.46v66.59" transform="translate(-45.41 -49.67)"/><line class="cls-4" x1="308.96" y1="118.37" x2="308.96" y2="120.37"/><polygon class="cls-6" points="225.11 32.36 235.96 38.63 235.96 26.1 225.11 32.36"/><rect class="cls-8" x="807.37" y="65.97" width="117.05" height="117.05" rx="10.07" transform="translate(1686.38 199.33) rotate(180)"/><rect class="cls-9" x="792.05" y="50.17" width="147.69" height="205.68" rx="13.15" transform="translate(1686.38 256.34) rotate(180)"/><g class="cls-10"><rect x="761.96" y="18.31" width="117.05" height="117.05" rx="10.07"/></g><rect class="cls-11" x="761.96" y="16.31" width="117.05" height="117.05" rx="10.07"/><rect class="cls-9" x="620.34" y="175.07" width="147.69" height="205.62" rx="13.15" transform="translate(1342.96 506.1) rotate(180)"/><g class="cls-10"><rect x="590.25" y="143.21" width="117.05" height="117.05" rx="10.07"/></g><rect class="cls-11" x="590.25" y="141.21" width="117.05" height="117.05" rx="10.07"/><path class="cls-12" d="M654.67,215.19a45.58,45.58,0,1,1,7.1,64.07A45.58,45.58,0,0,1,654.67,215.19Zm49.83,63.37a37.68,37.68,0,1,0-49.13-20.63A37.68,37.68,0,0,0,704.5,278.56Z" transform="translate(-45.41 -49.67)"/><polygon class="cls-12" points="692.17 226.54 683.04 219.22 677.81 225.76 686.85 233 692.17 226.54"/><rect class="cls-12" x="740.36" y="273.44" width="12.29" height="31.03" rx="2.93" transform="translate(1393.2 -162.91) rotate(128.68)"/><rect class="cls-9" x="448.63" y="50.17" width="147.69" height="207.74" rx="13.15" transform="translate(999.55 258.4) rotate(180)"/><g class="cls-10"><rect x="418.55" y="18.31" width="117.05" height="117.05" rx="10.07"/></g><rect class="cls-11" x="418.55" y="16.31" width="117.05" height="117.05" rx="10.07"/><rect class="cls-9" x="276.54" y="175.34" width="147.69" height="206.16" rx="13.15" transform="translate(655.36 507.17) rotate(180)"/><g class="cls-10"><rect x="246.45" y="143.47" width="117.05" height="117.05" rx="10.07"/></g><rect class="cls-11" x="246.45" y="141.47" width="117.05" height="117.05" rx="10.07"/><g class="cls-13"><path class="cls-14" d="M864.17,170s-6,14.28-7.32,21,12.66,6.76,12.66,6.76L874.38,171Z" transform="translate(-45.41 -49.67)"/><path class="cls-14" d="M883.27,141.28s-16.75,10.11-23.67,30.12l21.82,9.15,18.6-4.14Z" transform="translate(-45.41 -49.67)"/><path class="cls-14" d="M860.65,207.12c2.18-40.75,17.28-72.31,35.6-72.31s33.43,31.56,35.6,72.31Z" transform="translate(-45.41 -49.67)"/><path class="cls-15" d="M950.11,173A58.11,58.11,0,0,0,939,158.16c-7.32-7.07-14.18-13.16-22.8-17.48s-12.6-4.63-12.6-4.63l-1.41,2.8s7.52,14,9.09,17.88S921,180.26,921,180.26s10.4,8.91,11.89,8.1S950.11,173,950.11,173Z" transform="translate(-45.41 -49.67)"/><line class="cls-16" x1="864.31" y1="103.13" x2="879.5" y2="137.51"/><path class="cls-16" d="M904.44,136.05s25.57,5.61,44.19,34.56" transform="translate(-45.41 -49.67)"/></g><path class="cls-17" d="M905.63,137.3c0,2.84-4.2,5.15-9.38,5.15s-9.37-2.31-9.37-5.15,4.19-5.16,9.37-5.16S905.63,134.45,905.63,137.3Z" transform="translate(-45.41 -49.67)"/><path class="cls-17" d="M885.48,93.57h7.75c5.15,0,9.37,4.8,9.37,10.66v12c0,.34,0,.68-.05,1a4.94,4.94,0,0,1,.13,1.1v15a4.84,4.84,0,0,1-4.82,4.82h-3.07a4.84,4.84,0,0,1-4.83-4.82v-6.47h-4.48c-5.15,0-9.36-4.8-9.36-10.67v-12C876.12,98.37,880.33,93.57,885.48,93.57Z" transform="translate(-45.41 -49.67)"/><path class="cls-18" d="M906.85,116.43s7-4.8,8-12.87c0,0,.3-12.3-10-16.85a34.62,34.62,0,0,0-24.55-1.19c-7.65,2.88-10.89,7.41-7.94,13.68,2.2,4.66,13.15,2.21,16.94-.69,0,0,.67,4.92,10.12,6.29l3.23,13,.2,4.25Z" transform="translate(-45.41 -49.67)"/><path class="cls-15" d="M912.35,112.56a6.17,6.17,0,1,1-6.16-6.12A6.14,6.14,0,0,1,912.35,112.56Z" transform="translate(-45.41 -49.67)"/><path class="cls-18" d="M903.26,113.36a2.54,2.54,0,0,1,0-.39c0-.07,0-.13,0-.19s0-.07,0-.1,0,.07,0,0,.06-.34.1-.51a2.58,2.58,0,0,1,.08-.26,1.21,1.21,0,0,1,0-.14l0-.07a3.91,3.91,0,0,1,.31-.57s.12-.15,0-.07l.1-.12a2.83,2.83,0,0,1,.25-.24l.07-.06.14-.1.34-.19s.11,0,0,0,.08,0,.1,0l.22-.07a1.05,1.05,0,0,1,.24-.06l.09,0,.11,0a5.53,5.53,0,0,1,1.22,0,.41.41,0,0,0,.41-.41.42.42,0,0,0-.41-.41,3.87,3.87,0,0,0-3.5,1.15,4.4,4.4,0,0,0-.9,2.41,4.87,4.87,0,0,0,0,.54.42.42,0,0,0,.41.42.41.41,0,0,0,.41-.42Z" transform="translate(-45.41 -49.67)"/><path class="cls-19" d="M900,112.56a6.06,6.06,0,0,1,1.86-4.38" transform="translate(-45.41 -49.67)"/><path class="cls-19" d="M901.88,108.18a6.12,6.12,0,1,1,1.4,9.77,9.7,9.7,0,0,1-1.4-1" transform="translate(-45.41 -49.67)"/><path class="cls-14" d="M826.55,76.9h29.58A6.68,6.68,0,0,1,863,83.41v28.06l-7-6.07H826.55a6.67,6.67,0,0,1-6.84-6.5V83.41A6.68,6.68,0,0,1,826.55,76.9Z" transform="translate(-45.41 -49.67)"/><path class="cls-18" d="M848.11,91.67a3,3,0,1,0,3-2.83A2.9,2.9,0,0,0,848.11,91.67Z" transform="translate(-45.41 -49.67)"/><path class="cls-18" d="M837.76,91.67a3,3,0,1,0,3-2.83A2.91,2.91,0,0,0,837.76,91.67Z" transform="translate(-45.41 -49.67)"/><path class="cls-18" d="M827.41,91.67a3,3,0,1,0,3-2.83A2.91,2.91,0,0,0,827.41,91.67Z" transform="translate(-45.41 -49.67)"/><path class="cls-14" d="M848.21,124H810.86a8.43,8.43,0,0,0-8.64,8.21v35.44L811,160h37.2a8.44,8.44,0,0,0,8.64-8.21V132.2A8.43,8.43,0,0,0,848.21,124Z" transform="translate(-45.41 -49.67)"/><path class="cls-18" d="M821,142.63a3.76,3.76,0,1,1-3.76-3.57A3.67,3.67,0,0,1,821,142.63Z" transform="translate(-45.41 -49.67)"/><path class="cls-18" d="M834.06,142.63a3.77,3.77,0,1,1-3.76-3.57A3.67,3.67,0,0,1,834.06,142.63Z" transform="translate(-45.41 -49.67)"/><path class="cls-18" d="M847.12,142.63a3.76,3.76,0,1,1-3.75-3.57A3.67,3.67,0,0,1,847.12,142.63Z" transform="translate(-45.41 -49.67)"/><rect class="cls-9" x="105.42" y="50.89" width="147.69" height="206.77" rx="13.15" transform="translate(313.13 258.88) rotate(180)"/><g class="cls-10"><rect x="75.33" y="19.02" width="117.05" height="117.05" rx="10.07"/></g><rect class="cls-11" x="75.33" y="17.02" width="117.05" height="117.05" rx="10.07"/><line class="cls-20" x1="874.66" y1="181.46" x2="765.61" y2="181.46"/><line class="cls-20" x1="530.82" y1="181.46" x2="421.78" y2="181.46"/><line class="cls-20" x1="188.66" y1="181.46" x2="79.62" y2="181.46"/><line class="cls-20" x1="708.07" y1="308.18" x2="589.02" y2="308.18"/><line class="cls-20" x1="364.4" y1="308.18" x2="245.35" y2="308.18"/><g class="cls-21"><path class="cls-15" d="M562.08,136.08l-12.55-23.25-18.73,1.89s-6.61.44-8.16.13-9.44-1.75-10.58-1-25.32,11.39-25.32,11.39-1,1.09-.64,3.61,2.82,19.85,2.82,19.85l8,1.51s.49.43.42,1.92.7,2.6,2.38,3.79a5.86,5.86,0,0,0,3.53,1.05s-.65,5.18,2.32,5.84a4.43,4.43,0,0,0,4.4-1,4.19,4.19,0,0,0,3.41,4.82c4.08.94,6.51-3.25,6.51-3.25s-.53,4.36,3.47,4.46,5.87-3.65,5.87-3.65,2.36,2.9,5.21,2.62,4.06-2,3.54-4.08-.18-1-.18-1a4.62,4.62,0,0,0,2.52-.23c1.58-.51,3.12-1.31,3.33-2.61a9.14,9.14,0,0,0-.12-2.85,3.32,3.32,0,0,0,4-.87,8.44,8.44,0,0,0,1.74-3.06l-.33-1.74s4.3-.06,4.64-.84,2-3.2,1.15-4.48a11.6,11.6,0,0,0-1.32-1.81s-2.71-.75-.63-2.36,7-5.74,7-5.74A2,2,0,0,1,562.08,136.08Z" transform="translate(-45.41 -49.67)"/><path class="cls-22" d="M487.32,148.36l10.85,2a4.08,4.08,0,0,0,.54,5.75h0a4.09,4.09,0,0,0,5.75-.53l6-7.19,5.87-7.08" transform="translate(-45.41 -49.67)"/><path class="cls-22" d="M514.38,113.54c-3.5.11-29.15,12.38-29.15,12.38" transform="translate(-45.41 -49.67)"/><line class="cls-22" x1="506.33" y1="91.96" x2="515.55" y2="84.84"/><path class="cls-22" d="M503.7,156.52a4.1,4.1,0,0,0,.53,5.76h0a4.08,4.08,0,0,0,5.75-.54l6-7.19,7.36-8.87" transform="translate(-45.41 -49.67)"/><path class="cls-22" d="M511.25,160.21a4.09,4.09,0,0,0,.53,5.75h0a4.09,4.09,0,0,0,5.76-.54l6-7.19,6.4-7.71" transform="translate(-45.41 -49.67)"/><path class="cls-22" d="M520.92,161.35a4.08,4.08,0,0,0,.54,5.75h0a4.09,4.09,0,0,0,5.75-.53l2-2.45" transform="translate(-45.41 -49.67)"/><path class="cls-22" d="M554,148.66h0a3.9,3.9,0,0,0-.51-5.51l-4.63-3.85a3.93,3.93,0,0,0-5.52.51h0a3.92,3.92,0,0,0,.52,5.52l4.63,3.85A3.91,3.91,0,0,0,554,148.66Z" transform="translate(-45.41 -49.67)"/><path class="cls-22" d="M548.43,154.34h0a3.92,3.92,0,0,0-.51-5.51L543.28,145a3.92,3.92,0,0,0-5.51.51h0a3.92,3.92,0,0,0,.51,5.51l4.64,3.85A3.92,3.92,0,0,0,548.43,154.34Z" transform="translate(-45.41 -49.67)"/><path class="cls-22" d="M543,160h0a3.9,3.9,0,0,0-.51-5.51l-4.63-3.85a3.93,3.93,0,0,0-5.52.51h0a3.92,3.92,0,0,0,.52,5.52l4.63,3.84A3.92,3.92,0,0,0,543,160Z" transform="translate(-45.41 -49.67)"/><path class="cls-22" d="M537.1,165.34h0a3.9,3.9,0,0,0-.51-5.51L532,156a3.93,3.93,0,0,0-5.52.51h0A3.92,3.92,0,0,0,527,162l4.63,3.85A3.91,3.91,0,0,0,537.1,165.34Z" transform="translate(-45.41 -49.67)"/><path class="cls-22" d="M498.17,150.4l22.94-24,9.27,3c3,1,6.68.29,8.38-2.39.74-1.16,1.38-3-.51-5.48-1.32-1.74-4.49-5.75-23.47-7.89-3.48-.39,10.77,1.59,10.77,1.59l24.68-2.49" transform="translate(-45.41 -49.67)"/><path class="cls-15" d="M443.26,121.28c13.76,0,28.27,1.71,42.16,2.54l3.73,27.3s-29.25,11.11-46.94,19.46Z" transform="translate(-45.41 -49.67)"/><path class="cls-23" d="M442.93,121c14.52.73,27.71,2.22,42.49,2.86l3.73,27.3s-29.25,11.11-46.94,19.46" transform="translate(-45.41 -49.67)"/><line class="cls-23" x1="424.25" y1="72.82" x2="429.26" y2="107.11"/><path class="cls-24" d="M480.61,148.52a1.61,1.61,0,1,0,1.45-1.75A1.61,1.61,0,0,0,480.61,148.52Z" transform="translate(-45.41 -49.67)"/><polygon class="cls-9" points="509.5 54.26 502.41 58.89 517.41 87.83 525.43 84.63 509.5 54.26"/><path class="cls-15" d="M607.07,123.55c-19.19,6.72-36.23,12.56-36.23,12.56L553.15,103s15.32-11.51,32-24.1Z" transform="translate(-45.41 -49.67)"/><path class="cls-23" d="M586.67,77.82,553.15,103l17.69,33.08s17-5.84,36.23-12.56" transform="translate(-45.41 -49.67)"/><path class="cls-25" d="M575,130.84a2.4,2.4,0,1,0-3.32-.7A2.41,2.41,0,0,0,575,130.84Z" transform="translate(-45.41 -49.67)"/><path class="cls-25" d="M581.86,128.94a2.4,2.4,0,1,0-3.31-.7A2.39,2.39,0,0,0,581.86,128.94Z" transform="translate(-45.41 -49.67)"/><path class="cls-25" d="M588.52,126.74a2.4,2.4,0,1,0-3.31-.69A2.4,2.4,0,0,0,588.52,126.74Z" transform="translate(-45.41 -49.67)"/></g><path class="cls-11" d="M819.85,221.46a4.93,4.93,0,0,1-3.39-1.18,4.43,4.43,0,0,1-1-1.27,4.85,4.85,0,0,1-.5-1.59,5.17,5.17,0,0,1-.07-1,9.28,9.28,0,0,1,.06-.93q.06-.45.15-.84c.06-.26.13-.5.19-.71a8.23,8.23,0,0,1,.53-1.36c.19-.38.35-.66.47-.85l1.24.92c-.06.09-.14.23-.23.4s-.18.38-.27.61-.18.49-.26.77a8.67,8.67,0,0,0-.21.88,7.37,7.37,0,0,0-.11.93,5.62,5.62,0,0,0,0,.92,3.12,3.12,0,0,0,.13.47,2.66,2.66,0,0,0,.27.57,4.37,4.37,0,0,0,.44.57,2.92,2.92,0,0,0,.66.52,4.13,4.13,0,0,0,.9.38,4.56,4.56,0,0,0,1.19.19h0a5.9,5.9,0,0,0,2.68-.66,3,3,0,0,0,1.38-1.67,5.28,5.28,0,0,0,.21-1.36,7,7,0,0,0-.09-1.31,8.34,8.34,0,0,0-.29-1.17c-.12-.36-.24-.67-.36-.94s-.23-.48-.32-.64a2,2,0,0,0-.14-.23l1.3-.83.2.33q.17.29.39.78c.14.33.29.71.44,1.14a9.54,9.54,0,0,1,.33,1.42,8.2,8.2,0,0,1,.09,1.59,6.19,6.19,0,0,1-.3,1.68,4.06,4.06,0,0,1-.67,1.33,4.34,4.34,0,0,1-1.11,1,5.24,5.24,0,0,1-1.62.75,9,9,0,0,1-2.05.32h-.31Zm1.89-10.41-1.28,1.28-1.28-1.28,1.27-1.28Z" transform="translate(-45.41 -49.67)"/><path class="cls-11" d="M831.63,216.07a5,5,0,0,1-1.48-.2,2.7,2.7,0,0,1-1-.63,2,2,0,0,1-.4-.55,2.94,2.94,0,0,1-.2-.59,2.81,2.81,0,0,1-.08-.55v-.89c0-.18,0-.43,0-.75v-1.09c0-.41,0-.85,0-1.31s0-.91,0-1.4,0-1-.05-1.41,0-.87-.09-1.25a8.09,8.09,0,0,0-.12-.95l1.53-.28c0,.27.09.59.13,1s.06.81.09,1.26,0,.93.05,1.42,0,1,0,1.44,0,.9,0,1.33v1.94c0,.21,0,.34,0,.38v.14a5.53,5.53,0,0,0,0,.61.68.68,0,0,0,.21.43,1.85,1.85,0,0,0,1.33.38h.07a.72.72,0,0,1,.54.23.74.74,0,0,1,.17.25.77.77,0,0,1-.16.84A.75.75,0,0,1,831.63,216.07Z" transform="translate(-45.41 -49.67)"/><path class="cls-11" d="M830.85,215.3a.72.72,0,0,1,.06-.29.74.74,0,0,1,.17-.25.81.81,0,0,1,.24-.17,1,1,0,0,1,.3-.05h2.65a1.58,1.58,0,0,0,.63-.13,1.77,1.77,0,0,0,.58-.34,2.13,2.13,0,0,0,.42-.48,1.29,1.29,0,0,0,.19-.55,2.33,2.33,0,0,0-.11-.93,5.36,5.36,0,0,0-.44-1,8.62,8.62,0,0,0-.66-1,12,12,0,0,0-.78-.93c-.28-.3-.55-.57-.83-.82s-.53-.46-.76-.64l.2-1.73,6.92-3,.6,1.42L834,207.05a9,9,0,0,1,1.05,1,11.47,11.47,0,0,1,.81,1c.24.33.45.65.64,1s.38.65.55,1l.52,1c.17.33.36.66.56,1a4.54,4.54,0,0,0,.48.68,3.32,3.32,0,0,0,.56.51,2.35,2.35,0,0,0,.67.34,2.85,2.85,0,0,0,.8.13H841a.74.74,0,0,1,.55.22.77.77,0,0,1,.22.54.76.76,0,0,1-.22.55.74.74,0,0,1-.55.22h-.06a5.75,5.75,0,0,1-1-.07,7.35,7.35,0,0,1-.84-.2,3.51,3.51,0,0,1-1-.6,5,5,0,0,1-.82-.84,3.64,3.64,0,0,1-.68.87,3.36,3.36,0,0,1-.54.39,4,4,0,0,1-.6.25,4.13,4.13,0,0,1-.63.14c-.21,0-.42.05-.64.06h-2.55a.75.75,0,0,1-.55-.22A.72.72,0,0,1,830.85,215.3Zm8.23-13.23-6.29,2.66.05-1,5.87-2.45Z" transform="translate(-45.41 -49.67)"/><path class="cls-11" d="M839.74,215.3a.7.7,0,0,1,.22-.54.73.73,0,0,1,.54-.22H842a4.82,4.82,0,0,0,.65,0l.64-.08a3.39,3.39,0,0,0,.59-.17,2.37,2.37,0,0,0,.47-.26,1.1,1.1,0,0,0,.3-.38,2,2,0,0,0,.09-1,7.73,7.73,0,0,0-.32-1.45c0-.16-.12-.35-.2-.54s-.15-.38-.22-.55-.17-.39-.26-.58l1.4-.69a1.37,1.37,0,0,0,.07.16c.05.1.11.24.18.41s.16.37.25.6.17.47.25.72a5.16,5.16,0,0,1,.18,3.51,2.9,2.9,0,0,1-2,1.66,4.82,4.82,0,0,1-.54.1l-.68.05-.66,0H840.5a.73.73,0,0,1-.54-.22A.72.72,0,0,1,839.74,215.3Zm3.77,3.47L842.24,220,841,218.76l1.27-1.27Zm3.21,0-1.27,1.27-1.28-1.28,1.26-1.27Z" transform="translate(-45.41 -49.67)"/><path class="cls-11" d="M850.58,203.71c.22,2.13.36,4,.39,5.7q.09,4.16-.12,6.73l-1.54-.09a53.53,53.53,0,0,0,.15-5.84q-.15-3.79-.42-6.26Z" transform="translate(-45.41 -49.67)"/><path class="cls-11" d="M855.76,211c.14.49.28,1,.41,1.44.05.21.11.42.17.64s.11.44.16.65.09.44.12.64.07.4.09.58,0,.12,0,.19,0,.16,0,.25a4.54,4.54,0,0,1-.2,1.32,5.68,5.68,0,0,1-.56,1.23,7,7,0,0,1-.85,1.13,10.26,10.26,0,0,1-1.06,1c-.38.31-.79.6-1.21.88a12.85,12.85,0,0,1-1.3.72l-.68-1.37a12.47,12.47,0,0,0,1.6-1,8.7,8.7,0,0,0,1.38-1.17,5.77,5.77,0,0,0,1-1.34,3.14,3.14,0,0,0,.37-1.47.72.72,0,0,0,0-.13c0-.06,0-.12,0-.18h0c0-.16,0-.34-.08-.53s-.08-.39-.13-.59-.09-.4-.14-.6-.11-.39-.16-.58c-.13-.44-.26-.88-.4-1.32Z" transform="translate(-45.41 -49.67)"/><path class="cls-11" d="M866.56,216.07h-.2a3.15,3.15,0,0,1-.37,0,4.06,4.06,0,0,1-.52-.11,2.68,2.68,0,0,1-.57-.22,2.58,2.58,0,0,1-1.13-.93,2.53,2.53,0,0,1-.39-1.41,4.73,4.73,0,0,1,1.27-2.95c.18-.2.34-.38.5-.54s.3-.3.42-.41l-.38-.33-.14-.12,1-1.2.17.15.41.36.57.56.66.69a9.94,9.94,0,0,1,1.43,2,4,4,0,0,1,.47,1.75,2.69,2.69,0,0,1-.36,1.41,2.43,2.43,0,0,1-1,.93,3.59,3.59,0,0,1-.51.2,3.38,3.38,0,0,1-.49.11l-.45.06Zm.09-5.51c-.15.14-.33.31-.53.52a6.54,6.54,0,0,0-.57.69,6.06,6.06,0,0,0-.45.78,2,2,0,0,0-.18.8,2.29,2.29,0,0,0,0,.25.59.59,0,0,0,.09.24.8.8,0,0,0,.19.24,1,1,0,0,0,.33.21,2,2,0,0,0,.31.12l.29.06.24,0h.37l.28,0,.31-.07a1.63,1.63,0,0,0,.31-.11,1,1,0,0,0,.42-.38,1.11,1.11,0,0,0,.13-.58,2.7,2.7,0,0,0-.39-1.22,8.75,8.75,0,0,0-1.14-1.54h0S866.66,210.57,866.65,210.56Z" transform="translate(-45.41 -49.67)"/><path class="cls-11" d="M874.37,211q.23.74.42,1.44c.05.21.11.42.16.64s.11.44.16.65.1.44.13.64.07.4.09.58a1.37,1.37,0,0,0,0,.19v.25a4.23,4.23,0,0,1-.2,1.32,5.64,5.64,0,0,1-.55,1.23,7,7,0,0,1-.85,1.13,10.26,10.26,0,0,1-1.06,1c-.39.31-.79.6-1.21.88a12.85,12.85,0,0,1-1.3.72l-.68-1.37a12.47,12.47,0,0,0,1.6-1,8.7,8.7,0,0,0,1.38-1.17,5.77,5.77,0,0,0,1-1.34,3.14,3.14,0,0,0,.37-1.47.72.72,0,0,0,0-.13c0-.06,0-.12,0-.18h0c0-.16,0-.34-.08-.53s-.08-.39-.13-.59-.09-.4-.15-.6l-.15-.58c-.13-.44-.26-.88-.4-1.32Z" transform="translate(-45.41 -49.67)"/><path class="cls-11" d="M876.89,220.05a9.62,9.62,0,0,0,2.16-.67,7.72,7.72,0,0,0,1.64-1,5,5,0,0,0,1.08-1.15,3,3,0,0,0,.48-1.19q-.33,0-.78,0a8.38,8.38,0,0,1-.88,0,3.32,3.32,0,0,1-2.51-1.11,2.17,2.17,0,0,1-.46-1,3.84,3.84,0,0,1,0-1.22,5.09,5.09,0,0,1,.33-1.2,4.6,4.6,0,0,1,.57-1,2.93,2.93,0,0,1,.86-.74,2.05,2.05,0,0,1,1-.26,2.78,2.78,0,0,1,2,1,5.1,5.1,0,0,1,.7,1,6.71,6.71,0,0,1,.49,1.23,7.8,7.8,0,0,1,.25,2.79,6.32,6.32,0,0,1-.38,1.61,6.58,6.58,0,0,1-.76,1.38,6.49,6.49,0,0,1-1.07,1.15,7.86,7.86,0,0,1-1.31.91,8.93,8.93,0,0,1-3.06,1Zm3.46-9.07a.61.61,0,0,0-.43.18,1.86,1.86,0,0,0-.37.45,2.82,2.82,0,0,0-.27.61,4.14,4.14,0,0,0-.15.68,2.51,2.51,0,0,0,0,.61.85.85,0,0,0,.18.45.81.81,0,0,0,.29.26,1.8,1.8,0,0,0,.38.16,2.7,2.7,0,0,0,.39.08l.33,0c.33,0,.63,0,.9,0s.52,0,.72,0a5.61,5.61,0,0,0-.12-.94,5.15,5.15,0,0,0-.24-.84,3.66,3.66,0,0,0-.33-.69,3.93,3.93,0,0,0-.38-.54l-.18-.16a1.2,1.2,0,0,0-.21-.17,1.08,1.08,0,0,0-.24-.12A.85.85,0,0,0,880.35,211Z" transform="translate(-45.41 -49.67)"/><path class="cls-11" d="M889.63,216.07a4.9,4.9,0,0,1-1.48-.2,2.63,2.63,0,0,1-1-.63,1.84,1.84,0,0,1-.4-.55,2.94,2.94,0,0,1-.2-.59,2.81,2.81,0,0,1-.08-.55c0-.18,0-.33,0-.45V213s0-.1,0-.29,0-.43,0-.75,0-.68,0-1.09,0-.85,0-1.31,0-.91,0-1.4,0-1,0-1.41,0-.87-.09-1.25-.08-.7-.12-.95l1.53-.28c0,.27.09.59.13,1s.06.81.09,1.26,0,.93.05,1.42,0,1,0,1.44,0,.9,0,1.33v1.94c0,.21,0,.34,0,.38v.14a3.83,3.83,0,0,0,0,.61.68.68,0,0,0,.21.43,1.85,1.85,0,0,0,1.33.38h.07a.72.72,0,0,1,.29.06.81.81,0,0,1,.42.42.77.77,0,0,1-.16.84A.77.77,0,0,1,889.63,216.07Z" transform="translate(-45.41 -49.67)"/><path class="cls-11" d="M888.82,215.3a.55.55,0,0,1,.07-.28.81.81,0,0,1,.17-.24.74.74,0,0,1,.25-.17.73.73,0,0,1,.29-.07h.07a1.21,1.21,0,0,0,.63-.18,2.91,2.91,0,0,0,.56-.45,4.11,4.11,0,0,0,.47-.61q.21-.33.39-.66c.11-.21.2-.41.29-.62s.16-.4.23-.58.13-.34.17-.48.08-.26.1-.34,0-.19,0-.19l1.51.41a.08.08,0,0,0,0,.06l0,.13-.12.52c0,.23-.09.49-.13.77a5.48,5.48,0,0,0,0,1.19,1.74,1.74,0,0,0,.21.78.43.43,0,0,0,.35.23.52.52,0,0,0,.17,0,1,1,0,0,0,.57-.19,2.77,2.77,0,0,0,.69-.84,7.44,7.44,0,0,0,.6-1.4c.09-.26.16-.5.22-.73s.1-.42.14-.58a2.86,2.86,0,0,1,.06-.31c0-.08,0-.12,0-.13l1.53.29s0,0,0,.12,0,.18-.06.31a5,5,0,0,0-.07.5c0,.2,0,.41,0,.62a5.33,5.33,0,0,0,.06,1.24,1.76,1.76,0,0,0,.33.79.77.77,0,0,0,.23.2.94.94,0,0,0,.43.08.84.84,0,0,0,.66-.28,2,2,0,0,0,.42-.85,6.08,6.08,0,0,0,.21-1.33c0-.24,0-.46,0-.66s0-.37,0-.52,0-.23,0-.31v-.13l1.53-.13s0,.17,0,.44c0,.11,0,.24,0,.38a4.14,4.14,0,0,0,.07.45c0,.17.07.34.11.52a5.44,5.44,0,0,0,.15.54c.41,1.27,1,1.91,1.73,1.91h.15a.72.72,0,0,1,.55.22.7.7,0,0,1,.22.54.74.74,0,0,1-.22.55.72.72,0,0,1-.55.22h-.15a2.83,2.83,0,0,1-1.19-.26,3,3,0,0,1-1-.77,4.3,4.3,0,0,1-.43-.59,3.21,3.21,0,0,1-.51.81,2.52,2.52,0,0,1-.82.6,2.39,2.39,0,0,1-1,.21,2.45,2.45,0,0,1-1.06-.22,2.31,2.31,0,0,1-.81-.65,2.23,2.23,0,0,1-.2-.3,2.57,2.57,0,0,1-.18-.33,4.32,4.32,0,0,1-1,1,2.5,2.5,0,0,1-1.48.49h-.21l-.21,0a2,2,0,0,1-1.42-.93c-.05-.09-.1-.19-.14-.28s-.08-.2-.13-.3a4.26,4.26,0,0,1-.52.58,3,3,0,0,1-2.14.95h-.07a.73.73,0,0,1-.3-.06.72.72,0,0,1-.25-.16,1.1,1.1,0,0,1-.17-.25A.73.73,0,0,1,888.82,215.3Zm5.69-8.29,1.27-1.28,1.28,1.29-1.27,1.27Zm1.89-2.36,1.15-1.16,1.17,1.17-1.16,1.16ZM898,207l1.26-1.27L900.5,207l-1.27,1.27Z" transform="translate(-45.41 -49.67)"/><path class="cls-11" d="M903.53,215.3a.73.73,0,0,1,.22-.53.78.78,0,0,1,.54-.23h0a2.61,2.61,0,0,0,1.11-.22,2.5,2.5,0,0,0,.79-.57,4,4,0,0,0,.59-.81c.17-.31.33-.62.49-.95s.27-.55.41-.8a4.37,4.37,0,0,1,.47-.71,2.15,2.15,0,0,1,1.71-.86,2.45,2.45,0,0,1,2,.95,3.42,3.42,0,0,1,.75,1.89,4.11,4.11,0,0,1,0,1,3.89,3.89,0,0,1-.22,1,2.55,2.55,0,0,1-.61.93,1.91,1.91,0,0,1-.86.49,3.05,3.05,0,0,1-2-.21,6.9,6.9,0,0,1-1.59-.91.57.57,0,0,0-.08.08,4,4,0,0,1-3,1.2h0a.73.73,0,0,1-.54-.22A.78.78,0,0,1,903.53,215.3Zm4.71-1.77a6.1,6.1,0,0,0,1.3.76,1.59,1.59,0,0,0,1,.12.48.48,0,0,0,.26-.18,1.27,1.27,0,0,0,.22-.38,2.14,2.14,0,0,0,.12-.54,2.44,2.44,0,0,0,0-.66,1.3,1.3,0,0,0,0-.19,1.9,1.9,0,0,0-.09-.29,3.35,3.35,0,0,0-.15-.35,1.72,1.72,0,0,0-.23-.32,1.5,1.5,0,0,0-.31-.24.91.91,0,0,0-.41-.09.53.53,0,0,0-.3.09,1,1,0,0,0-.27.28,3.58,3.58,0,0,0-.29.47l-.35.66Z" transform="translate(-45.41 -49.67)"/><path class="cls-11" d="M633.67,333.93a3.72,3.72,0,0,1,1-.07,6.42,6.42,0,0,1,.87.11,4.5,4.5,0,0,1,.6.18l.26.1-.68,1.44a3,3,0,0,0-.54-.17,2.84,2.84,0,0,0-.56-.07,2.15,2.15,0,0,0-.66.05,2.09,2.09,0,0,0-.68.2,3.71,3.71,0,0,0-.69.45,4.48,4.48,0,0,0-.61.62,4,4,0,0,0-.46.72,2.94,2.94,0,0,0-.25.76,1.44,1.44,0,0,0,.06.72.87.87,0,0,0,.35.47,2.38,2.38,0,0,0,.6.28,6.73,6.73,0,0,0,.75.21c.27.06.53.12.79.2a4.81,4.81,0,0,1,.75.28,1.61,1.61,0,0,1,.59.44,1.52,1.52,0,0,1,.36.69,2.43,2.43,0,0,1,0,1,2.92,2.92,0,0,1-.69,1.41,4.46,4.46,0,0,1-1.45,1.09,7.54,7.54,0,0,1-2,.67,11.69,11.69,0,0,1-2.37.23,7.53,7.53,0,0,1-2.62-.43,4.65,4.65,0,0,1-1.87-1.24,4.39,4.39,0,0,1-.9-1.71,5.47,5.47,0,0,1-.12-2.12c0-.34.1-.69.17-1.05s.15-.72.24-1.06.17-.67.27-1,.17-.59.25-.83.13-.43.18-.58l.09-.25,1.5.53c-.24.73-.46,1.45-.66,2.18a16.3,16.3,0,0,0-.45,2.23,5.58,5.58,0,0,0,0,.61,3.11,3.11,0,0,0,.07.67,2.74,2.74,0,0,0,.21.67,2.19,2.19,0,0,0,.4.62,3,3,0,0,0,1.33.85,6.05,6.05,0,0,0,2,.28,11,11,0,0,0,2-.17,7,7,0,0,0,1.52-.47,3.36,3.36,0,0,0,1-.67,1.35,1.35,0,0,0,.39-.77.34.34,0,0,0-.14-.31,1.07,1.07,0,0,0-.4-.22,5,5,0,0,0-.6-.17l-.71-.19a6.44,6.44,0,0,1-.74-.25,2.76,2.76,0,0,1-.68-.36,2.46,2.46,0,0,1-.55-.52,1.81,1.81,0,0,1-.31-.75,3.64,3.64,0,0,1-.06-1.23,4.8,4.8,0,0,1,.28-1.19,5,5,0,0,1,.58-1.09,5.19,5.19,0,0,1,.83-.92,4.74,4.74,0,0,1,1-.7A4.51,4.51,0,0,1,633.67,333.93Z" transform="translate(-45.41 -49.67)"/><path class="cls-11" d="M642,340.3a4.54,4.54,0,0,1-.2,1.32,5.5,5.5,0,0,1-.56,1.24,6.75,6.75,0,0,1-.84,1.13,11.46,11.46,0,0,1-1.07,1,10.7,10.7,0,0,1-1.21.88c-.42.27-.86.51-1.29.73l-.68-1.38c.38-.2.75-.41,1.12-.64a9.88,9.88,0,0,0,1.05-.74,9.23,9.23,0,0,0,.91-.85,4.72,4.72,0,0,0,.7-.93,4.38,4.38,0,0,0,.43-1,3,3,0,0,0,.08-1.08v0c0-.3-.09-.62-.17-1s-.16-.68-.25-1l-.26-.93c-.09-.28-.16-.53-.23-.72l1.48-.45a14.16,14.16,0,0,0,.58,1.54,4.93,4.93,0,0,0,.59,1,2,2,0,0,0,.63.59,1.33,1.33,0,0,0,.71.19h0a.78.78,0,0,1,.31.06,1.1,1.1,0,0,1,.25.17.82.82,0,0,1,.16.25.73.73,0,0,1,.06.3.7.7,0,0,1-.22.54.8.8,0,0,1-.56.22h-.29l-.39-.06a2.27,2.27,0,0,1-.44-.18,1.63,1.63,0,0,1-.44-.33Z" transform="translate(-45.41 -49.67)"/><path class="cls-11" d="M642.67,340.07a.74.74,0,0,1,.22-.55.75.75,0,0,1,.55-.23H644a10.19,10.19,0,0,0,1.26-.07,3.8,3.8,0,0,0,1.06-.29,1.85,1.85,0,0,0,.73-.58,1.38,1.38,0,0,0,.24-.93c0-.3,0-.6-.07-.91a8,8,0,0,0-.23-1.07l1.46-.42c0,.18.09.38.13.58s.08.4.11.61.06.42.08.63,0,.42.05.62a4.44,4.44,0,0,0,.08.61,1.92,1.92,0,0,0,.19.6,1.2,1.2,0,0,0,.39.45,1.05,1.05,0,0,0,.64.18.8.8,0,0,1,.56.22.75.75,0,0,1,.23.55.6.6,0,0,1-.07.3.78.78,0,0,1-.16.24.85.85,0,0,1-.25.17.72.72,0,0,1-.29.06,2.52,2.52,0,0,1-2.15-1,2.3,2.3,0,0,1-.73.47,5.62,5.62,0,0,1-1,.31,7.86,7.86,0,0,1-1.13.17,11.22,11.22,0,0,1-1.15.06h-.59a.78.78,0,0,1-.55-.22A.74.74,0,0,1,642.67,340.07Zm3.26,3.74-1.27,1.27-1.28-1.28,1.26-1.27Zm3.21,0-1.27,1.27-1.29-1.28,1.27-1.27Z" transform="translate(-45.41 -49.67)"/><path class="cls-11" d="M649.41,340.08a.73.73,0,0,1,.23-.55.88.88,0,0,1,.62-.23h1.8a7.6,7.6,0,0,0,1-.09,3.44,3.44,0,0,0,.84-.26,1.37,1.37,0,0,0,.6-.51,1.65,1.65,0,0,0,.3-.85,2.94,2.94,0,0,0-.09-1,2.83,2.83,0,0,0-.43-.82,12.85,12.85,0,0,0-.84-1.06c-.33-.38-.71-.77-1.12-1.17s-.83-.76-1.26-1.11l.18-1.6,6.43-2.76.61,1.43-5.61,2.35.84.74q.45.41.9.9a9.87,9.87,0,0,1,1,1.26,6.48,6.48,0,0,1,.59,1.13,4.3,4.3,0,0,1,.28,1,4,4,0,0,1,0,.9,3.17,3.17,0,0,1-.17.78,4,4,0,0,1-.28.66,3.2,3.2,0,0,1-2.36,1.54,3.37,3.37,0,0,1-.68.06h-2.52a.92.92,0,0,1-.62-.22A.74.74,0,0,1,649.41,340.08Zm8-13-6.29,2.66,0-1,5.87-2.45Z" transform="translate(-45.41 -49.67)"/><path class="cls-11" d="M665.72,340.84h-.19l-.38,0-.51-.11a3.14,3.14,0,0,1-.58-.22,2.58,2.58,0,0,1-1.13-.94,2.5,2.5,0,0,1-.39-1.4,4.73,4.73,0,0,1,1.28-2.95c.17-.2.33-.39.49-.55l.42-.41c-.15-.14-.28-.25-.37-.32s-.14-.12-.14-.13l1-1.2.17.15.41.37.57.55q.33.31.66.69a10.08,10.08,0,0,1,1.43,2,4.07,4.07,0,0,1,.47,1.76,2.74,2.74,0,0,1-.35,1.4,2.39,2.39,0,0,1-1,.93,2.69,2.69,0,0,1-.51.2l-.49.12a2.37,2.37,0,0,1-.44.05Zm.09-5.51c-.15.13-.32.3-.53.51a5.44,5.44,0,0,0-.56.69,4.13,4.13,0,0,0-.45.79,1.84,1.84,0,0,0-.19.8,1.94,1.94,0,0,0,0,.24.75.75,0,0,0,.09.25,1,1,0,0,0,.19.24,1.1,1.1,0,0,0,.34.21,1.82,1.82,0,0,0,.3.11l.29.07.24,0h.37l.28,0a1.7,1.7,0,0,0,.31-.06l.31-.11a1.12,1.12,0,0,0,.42-.38,1.11,1.11,0,0,0,.13-.58,2.63,2.63,0,0,0-.39-1.22,8.07,8.07,0,0,0-1.14-1.54v0Z" transform="translate(-45.41 -49.67)"/><path class="cls-11" d="M673.16,335.75c.14.48.28,1,.41,1.44.06.2.11.41.17.63s.11.44.16.66.09.43.13.64.06.4.08.57,0,.13,0,.2,0,.15,0,.24a4.44,4.44,0,0,1-.2,1.32,6,6,0,0,1-.56,1.24,8.06,8.06,0,0,1-.84,1.13,9.32,9.32,0,0,1-1.07,1,11.68,11.68,0,0,1-1.21.88,13,13,0,0,1-1.3.73l-.68-1.38a12.39,12.39,0,0,0,1.6-.94,8.86,8.86,0,0,0,1.38-1.17,5.61,5.61,0,0,0,1-1.35,3.08,3.08,0,0,0,.37-1.47V340a1.11,1.11,0,0,1,0-.17h0c0-.16,0-.33-.08-.52l-.12-.59-.15-.6c-.05-.2-.11-.4-.16-.59-.12-.44-.26-.87-.4-1.31Zm.35-3.18-1.28,1.28L671,332.56l1.28-1.27Z" transform="translate(-45.41 -49.67)"/><path class="cls-11" d="M677.75,328.48q.35,3.18.4,5.7c.06,2.76,0,5-.13,6.73l-1.54-.09a54,54,0,0,0,.16-5.85c-.11-2.53-.25-4.61-.42-6.26Z" transform="translate(-45.41 -49.67)"/><path class="cls-11" d="M682.84,340.84a3.83,3.83,0,0,1-1.71-.39,5.05,5.05,0,0,1-1.45-1.06l.88-1.25a4.44,4.44,0,0,0,1,.7,3.69,3.69,0,0,0,1,.36,2.81,2.81,0,0,0,.91.06,3.25,3.25,0,0,0,.87-.21,2.88,2.88,0,0,0,.66-.34,2.31,2.31,0,0,0,.38-.32l-2.47-5.94,1.43-.6q.24.61.6,1.47c.2.49.44,1.09.74,1.81l1,2.5c.1.26.2.48.28.69a1.56,1.56,0,0,0,.31.52,1.14,1.14,0,0,0,.5.34,2.41,2.41,0,0,0,.84.12.78.78,0,0,1,.55.22.77.77,0,0,1,0,1.1.78.78,0,0,1-.55.22,4,4,0,0,1-.9-.09,3.2,3.2,0,0,1-.7-.22,2.1,2.1,0,0,1-.52-.33,2.21,2.21,0,0,1-.4-.41c-.15.12-.33.24-.53.37a4.15,4.15,0,0,1-.7.34,4.62,4.62,0,0,1-.9.25A5.78,5.78,0,0,1,682.84,340.84Z" transform="translate(-45.41 -49.67)"/><path class="cls-11" d="M687.74,340.07a.75.75,0,0,1,.77-.77h1.6a2.64,2.64,0,0,0,.71-.12,1.55,1.55,0,0,0,.56-.28,1.44,1.44,0,0,0,.41-.52,2,2,0,0,0,.09-1,8.21,8.21,0,0,0-.32-1.45c-.06-.17-.12-.35-.2-.55l-.22-.54-.26-.59,1.39-.69.08.16c0,.11.11.24.18.42s.16.37.24.59a6.93,6.93,0,0,1,.25.73,5,5,0,0,1,.18,3.5,2.86,2.86,0,0,1-2,1.66,3.1,3.1,0,0,1-.82.15l-.76,0h-1.14a.75.75,0,0,1-.77-.77Zm4.68-9-1.27,1.27-1.29-1.28,1.28-1.27Z" transform="translate(-45.41 -49.67)"/><path class="cls-11" d="M696.59,328.48q.35,3.18.4,5.7a64.89,64.89,0,0,1-.13,6.73l-1.54-.09a54,54,0,0,0,.16-5.85c-.11-2.53-.25-4.61-.42-6.26Z" transform="translate(-45.41 -49.67)"/><path class="cls-11" d="M702.21,344.82a10.54,10.54,0,0,0,2.16-.67,7.63,7.63,0,0,0,1.63-1,4.81,4.81,0,0,0,1.08-1.15,3.11,3.11,0,0,0,.48-1.19h-.78c-.3,0-.59,0-.88,0a3.39,3.39,0,0,1-2.51-1.11,2.37,2.37,0,0,1-.46-1.05,4.15,4.15,0,0,1,0-1.22,5.06,5.06,0,0,1,.34-1.21,4.36,4.36,0,0,1,.57-1,2.85,2.85,0,0,1,.86-.75,2,2,0,0,1,1-.25,2.74,2.74,0,0,1,2,1,4.64,4.64,0,0,1,.7,1,6.4,6.4,0,0,1,.49,1.24,7.44,7.44,0,0,1,.26,1.36,7.59,7.59,0,0,1,0,1.43,5.66,5.66,0,0,1-.38,1.61,6.16,6.16,0,0,1-.76,1.38,6.83,6.83,0,0,1-1.07,1.15,8,8,0,0,1-1.31.9,8.1,8.1,0,0,1-1.47.65,8.68,8.68,0,0,1-1.58.39Zm3.45-9.07a.67.67,0,0,0-.43.17,1.54,1.54,0,0,0-.36.46,2.62,2.62,0,0,0-.27.61,3.42,3.42,0,0,0-.16.67,2.14,2.14,0,0,0,0,.62.92.92,0,0,0,.17.45,1.08,1.08,0,0,0,.3.26,2.39,2.39,0,0,0,.37.15l.39.09.33,0,.91,0,.71,0a5.75,5.75,0,0,0-.11-.94,7.51,7.51,0,0,0-.24-.83,4.44,4.44,0,0,0-.33-.69,4.2,4.2,0,0,0-.39-.54l-.17-.17-.22-.16a.9.9,0,0,0-.24-.12A.58.58,0,0,0,705.66,335.75Z" transform="translate(-45.41 -49.67)"/><path class="cls-11" d="M717.9,340.84a3.83,3.83,0,0,1-1.71-.39,5.05,5.05,0,0,1-1.45-1.06l.88-1.25a4.21,4.21,0,0,0,1,.7,3.77,3.77,0,0,0,.94.36,2.88,2.88,0,0,0,.92.06,3.25,3.25,0,0,0,.87-.21,3,3,0,0,0,1-.66l-2.47-5.94,1.42-.6.6,1.47.75,1.81c.3.71.64,1.55,1.05,2.5l.27.69a1.75,1.75,0,0,0,.31.52,1.2,1.2,0,0,0,.5.34,2.44,2.44,0,0,0,.85.12.8.8,0,0,1,.55.22.8.8,0,0,1,0,1.1.8.8,0,0,1-.55.22,4,4,0,0,1-.9-.09,3,3,0,0,1-.7-.22,2.16,2.16,0,0,1-.53-.33,2.5,2.5,0,0,1-.39-.41c-.16.12-.34.24-.54.37a4.44,4.44,0,0,1-.69.34,4.52,4.52,0,0,1-.91.25A5.67,5.67,0,0,1,717.9,340.84Z" transform="translate(-45.41 -49.67)"/><path class="cls-11" d="M722.45,340.07a.75.75,0,0,1,.23-.55.77.77,0,0,1,.54-.22h1.46l.65,0c.22,0,.44,0,.65-.09a3.05,3.05,0,0,0,.58-.16,1.65,1.65,0,0,0,.47-.27,1,1,0,0,0,.31-.37,2,2,0,0,0,.09-1,8.21,8.21,0,0,0-.32-1.45c-.06-.17-.12-.35-.2-.55l-.22-.54-.26-.59,1.39-.69.08.16c.05.11.11.24.18.42l.24.59a6.93,6.93,0,0,1,.25.73,5,5,0,0,1,.18,3.5,2.86,2.86,0,0,1-2,1.66,2.27,2.27,0,0,1-.54.1c-.22,0-.44,0-.67.05l-.66,0h-1.69a.77.77,0,0,1-.54-.22A.75.75,0,0,1,722.45,340.07Zm3.78,3.47L725,344.8l-1.29-1.27,1.27-1.28Zm3.2,0-1.26,1.28-1.29-1.28,1.27-1.27Z" transform="translate(-45.41 -49.67)"/><path class="cls-11" d="M734.3,340.83a4.47,4.47,0,0,1-.89-.1c-.34-.06-.68-.14-1-.23a8.34,8.34,0,0,1-.93-.33,2.25,2.25,0,0,1-.62-.36l.64-1.47a5,5,0,0,0,.7.36,6.83,6.83,0,0,0,.87.31,7.26,7.26,0,0,0,1,.19,4.25,4.25,0,0,0,.94,0,2.93,2.93,0,0,0,.85-.19,1.65,1.65,0,0,0,.65-.48c.15-.16.16-.46.06-.91a4.27,4.27,0,0,0-.28-.8,7,7,0,0,0-.46-.84,7.7,7.7,0,0,0-.6-.81,8.18,8.18,0,0,0-.68-.74,6.74,6.74,0,0,0-.73-.61,3.36,3.36,0,0,0-.72-.42l.64-1.43a6.63,6.63,0,0,1,.93.55,8.94,8.94,0,0,1,.91.76,9.15,9.15,0,0,1,.84.91,10,10,0,0,1,.74,1,9,9,0,0,1,.57,1,5.68,5.68,0,0,1,.36,1,4,4,0,0,1,.09.79,2.43,2.43,0,0,1-.07.63,1.84,1.84,0,0,1-.17.47,1.61,1.61,0,0,1-.24.36,3.48,3.48,0,0,1-2,1.15,4,4,0,0,1-.62.11C734.78,340.82,734.55,340.83,734.3,340.83Z" transform="translate(-45.41 -49.67)"/><path class="cls-11" d="M742.34,335.75q.23.72.42,1.44c0,.2.1.41.16.63s.11.44.16.66.09.43.13.64.07.4.09.57,0,.13,0,.2a1.77,1.77,0,0,1,0,.24,4.44,4.44,0,0,1-.2,1.32,5.5,5.5,0,0,1-.56,1.24,6.75,6.75,0,0,1-.84,1.13,10.12,10.12,0,0,1-1.06,1,13.59,13.59,0,0,1-2.51,1.61l-.68-1.38a12.28,12.28,0,0,0,1.59-.94,8.86,8.86,0,0,0,1.38-1.17,5.66,5.66,0,0,0,1-1.35,3.2,3.2,0,0,0,.37-1.47s0-.07,0-.13,0-.12,0-.17h0c0-.16,0-.33-.07-.52s-.08-.39-.13-.59l-.15-.6c0-.2-.1-.4-.16-.59-.12-.44-.25-.87-.4-1.31Zm.35-3.18-1.27,1.28-1.28-1.29,1.27-1.27Z" transform="translate(-45.41 -49.67)"/><path class="cls-11" d="M749,340.84a4.57,4.57,0,0,1-1.47-.21,2.54,2.54,0,0,1-1-.62,2,2,0,0,1-.39-.56,2.78,2.78,0,0,1-.21-.59,2.67,2.67,0,0,1-.07-.55c0-.17,0-.32,0-.45v-.15s0-.1,0-.28,0-.44,0-.75v-1.1c0-.41,0-.84,0-1.3s0-.92,0-1.4,0-1,0-1.41-.05-.87-.08-1.26-.08-.7-.13-.94L747,329c.05.26.09.59.13,1s.07.8.09,1.26,0,.92,0,1.42,0,1,0,1.44v3.79a3.74,3.74,0,0,0,0,.6.7.7,0,0,0,.21.44,1.87,1.87,0,0,0,1.33.37H749a.73.73,0,0,1,.3.07.85.85,0,0,1,.25.17.78.78,0,0,1,.16.24.63.63,0,0,1,.07.3.75.75,0,0,1-.23.55A.78.78,0,0,1,749,340.84Z" transform="translate(-45.41 -49.67)"/><path class="cls-11" d="M748.12,340.07a.74.74,0,0,1,.22-.55.77.77,0,0,1,.54-.22h1.61a2.56,2.56,0,0,0,.7-.12,1.69,1.69,0,0,0,.57-.28,1.42,1.42,0,0,0,.4-.52,1.77,1.77,0,0,0,.09-1,7.4,7.4,0,0,0-.32-1.45c0-.17-.12-.35-.2-.55s-.15-.37-.22-.54-.17-.39-.26-.59l1.4-.69a.84.84,0,0,0,.07.16c0,.11.11.24.18.42s.16.37.25.59.17.47.25.73a5.13,5.13,0,0,1,.18,3.5,2.88,2.88,0,0,1-2,1.66,3.17,3.17,0,0,1-.83.15l-.76,0h-1.14a.77.77,0,0,1-.54-.22A.74.74,0,0,1,748.12,340.07Zm4.39,3.71-1.27,1.27L750,343.77l1.28-1.27Z" transform="translate(-45.41 -49.67)"/><path class="cls-11" d="M484.81,215.15a5.15,5.15,0,0,1-.89-.09c-.34-.07-.69-.15-1-.24a9.33,9.33,0,0,1-.94-.33,2.17,2.17,0,0,1-.61-.36l.64-1.47a3.69,3.69,0,0,0,.69.36,8.14,8.14,0,0,0,.87.31,6.15,6.15,0,0,0,.95.19,4.34,4.34,0,0,0,.95,0,2.86,2.86,0,0,0,.84-.19,1.57,1.57,0,0,0,.66-.48c.14-.16.16-.46.05-.91a4.19,4.19,0,0,0-.27-.8,7.08,7.08,0,0,0-.47-.84,8.76,8.76,0,0,0-.59-.81,7,7,0,0,0-.69-.74,7.78,7.78,0,0,0-.72-.61,3.92,3.92,0,0,0-.72-.42l.63-1.43a6.47,6.47,0,0,1,.93.55,8.14,8.14,0,0,1,.91.76,10.51,10.51,0,0,1,.85.91,11.17,11.17,0,0,1,.73,1,9,9,0,0,1,.57,1.05,5.68,5.68,0,0,1,.36,1,4.06,4.06,0,0,1,.1.79,2.88,2.88,0,0,1-.07.63,1.71,1.71,0,0,1-.18.48,2.36,2.36,0,0,1-.23.35,3.48,3.48,0,0,1-2,1.15,4.14,4.14,0,0,1-.63.11Q485.17,215.15,484.81,215.15Z" transform="translate(-45.41 -49.67)"/><path class="cls-11" d="M492.24,202.8q.35,3.18.4,5.7a64.82,64.82,0,0,1-.13,6.73l-1.54-.09a53.87,53.87,0,0,0,.16-5.84c-.11-2.54-.25-4.62-.42-6.27Z" transform="translate(-45.41 -49.67)"/><path class="cls-11" d="M497.82,215.15a5.24,5.24,0,0,1-.89-.09q-.51-.1-1-.24a8.34,8.34,0,0,1-.93-.33,2.25,2.25,0,0,1-.62-.36l.64-1.47a4.15,4.15,0,0,0,.7.36,6.83,6.83,0,0,0,.87.31,5.92,5.92,0,0,0,.95.19,4.25,4.25,0,0,0,.94,0,2.93,2.93,0,0,0,.85-.19,1.48,1.48,0,0,0,.65-.48c.15-.16.16-.46.06-.91a4.27,4.27,0,0,0-.28-.8,7,7,0,0,0-.46-.84,8.9,8.9,0,0,0-.6-.81,8.18,8.18,0,0,0-.68-.74,6.74,6.74,0,0,0-.73-.61,3.36,3.36,0,0,0-.72-.42l.64-1.43a7.77,7.77,0,0,1,.93.55,9.36,9.36,0,0,1,1.75,1.67,11.31,11.31,0,0,1,.74,1,9,9,0,0,1,.57,1.05,5.68,5.68,0,0,1,.36,1,4,4,0,0,1,.09.79,2.38,2.38,0,0,1-.07.63,2.08,2.08,0,0,1-.17.48,1.8,1.8,0,0,1-.24.35,3.48,3.48,0,0,1-2,1.15,4,4,0,0,1-.62.11C498.3,215.14,498.07,215.15,497.82,215.15Z" transform="translate(-45.41 -49.67)"/><path class="cls-11" d="M506.24,210.07c.15.49.28,1,.42,1.44,0,.2.1.41.16.63s.11.44.16.66.09.43.13.64.06.4.09.57,0,.13,0,.2a1.77,1.77,0,0,1,0,.24,4.56,4.56,0,0,1-.2,1.33,5.64,5.64,0,0,1-.56,1.23,7.35,7.35,0,0,1-.84,1.13,9.32,9.32,0,0,1-1.07,1,10.7,10.7,0,0,1-1.21.88,11.94,11.94,0,0,1-1.3.73l-.68-1.38a12.39,12.39,0,0,0,1.6-.94,8.86,8.86,0,0,0,1.38-1.17,5.66,5.66,0,0,0,1-1.35,3.19,3.19,0,0,0,.36-1.47v-.13c0-.06,0-.11,0-.17h0a3.59,3.59,0,0,0-.08-.53c0-.19-.08-.39-.12-.59l-.15-.6c-.05-.2-.11-.4-.16-.59-.12-.43-.26-.87-.4-1.31Z" transform="translate(-45.41 -49.67)"/><path class="cls-11" d="M511,202.8q.34,3.18.4,5.7c.06,2.76,0,5-.13,6.73l-1.54-.09a53.87,53.87,0,0,0,.16-5.84c-.11-2.54-.25-4.62-.43-6.27Z" transform="translate(-45.41 -49.67)"/><path class="cls-11" d="M517.24,214.62a4.23,4.23,0,0,1-.2,1.32,5.46,5.46,0,0,1-.55,1.24,7.42,7.42,0,0,1-.85,1.13,11.33,11.33,0,0,1-1.06,1,11.68,11.68,0,0,1-1.21.88c-.43.27-.86.51-1.3.73l-.67-1.38c.37-.2.75-.41,1.12-.64a9.88,9.88,0,0,0,1.05-.74,10.37,10.37,0,0,0,.9-.84,5.1,5.1,0,0,0,.7-.94,3.83,3.83,0,0,0,.43-1,3.25,3.25,0,0,0,.09-1.08v0c0-.3-.1-.62-.17-1s-.16-.68-.25-1-.18-.63-.27-.92-.16-.53-.22-.73l1.47-.45c.2.6.39,1.12.58,1.54a5.12,5.12,0,0,0,.59,1,2.2,2.2,0,0,0,.63.6,1.48,1.48,0,0,0,.72.18h0a.6.6,0,0,1,.3.07.72.72,0,0,1,.25.16.85.85,0,0,1,.17.25.94.94,0,0,1,.05.3.7.7,0,0,1-.22.54.74.74,0,0,1-.55.22h-.29l-.4-.06a3,3,0,0,1-.44-.17,1.87,1.87,0,0,1-.44-.33Z" transform="translate(-45.41 -49.67)"/><path class="cls-11" d="M518,214.39a.74.74,0,0,1,.22-.55.82.82,0,0,1,.56-.22,13.27,13.27,0,0,0,1.6-.08,10.59,10.59,0,0,0,1.31-.21,6.35,6.35,0,0,0,1-.29,2.59,2.59,0,0,0,.59-.31,1.2,1.2,0,0,0,.16-.16.86.86,0,0,0,.13-.14h-.79a5.46,5.46,0,0,1-.82-.06,4.45,4.45,0,0,1-.76-.2,3,3,0,0,1-.64-.34,2.34,2.34,0,0,1-.49-.45,3.35,3.35,0,0,1-.22-.34,2.75,2.75,0,0,1-.18-.46,3.33,3.33,0,0,1-.09-.59,4.67,4.67,0,0,1,0-.72,5.05,5.05,0,0,1,.32-1.1,4.08,4.08,0,0,1,.52-.89,2.43,2.43,0,0,1,.79-.69,1.85,1.85,0,0,1,.91-.24,2.54,2.54,0,0,1,1.88.92,4.15,4.15,0,0,1,.63.92,5.33,5.33,0,0,1,.45,1.13,6.19,6.19,0,0,1,.24,1.24,5.89,5.89,0,0,1,0,1.26h0a5.19,5.19,0,0,1-.13.64c0,.06,0,.14-.07.25a1.38,1.38,0,0,1-.16.36,2.11,2.11,0,0,1-.29.42,2.91,2.91,0,0,1-.47.45,3.82,3.82,0,0,1-.95.52,8,8,0,0,1-1.27.38,12.61,12.61,0,0,1-1.49.23c-.52.05-1.06.08-1.59.09h-.14a.74.74,0,0,1-.54-.23A.72.72,0,0,1,518,214.39Zm3.64-10.82-1.26,1.26L519,203.56l1.27-1.28Zm.5,4.33a.47.47,0,0,0-.26.11,1,1,0,0,0-.29.32,2.43,2.43,0,0,0-.27.51,2.72,2.72,0,0,0-.19.71,1,1,0,0,0,.13.87,1.13,1.13,0,0,0,.46.31,2.42,2.42,0,0,0,.72.14h1.36a5.58,5.58,0,0,0-.3-1.44,3.29,3.29,0,0,0-.63-1.11,1.78,1.78,0,0,0-.32-.28A.72.72,0,0,0,522.09,207.9Zm2.71-4.33-1.26,1.28-1.29-1.28,1.27-1.27Z" transform="translate(-45.41 -49.67)"/><path class="cls-11" d="M535.09,215.16a3.83,3.83,0,0,1-1.71-.39,4.92,4.92,0,0,1-1.45-1.06l.88-1.25a4.21,4.21,0,0,0,1,.7,3.77,3.77,0,0,0,.94.36,2.88,2.88,0,0,0,.92.06,3.25,3.25,0,0,0,.87-.21,2.63,2.63,0,0,0,.65-.34,4.41,4.41,0,0,0,.39-.31l-2.47-5.95,1.42-.6.6,1.47.75,1.81c.29.72.64,1.55,1,2.51.11.25.2.48.28.68a2,2,0,0,0,.31.53,1.29,1.29,0,0,0,.5.33,2.44,2.44,0,0,0,.85.12.8.8,0,0,1,.55.22.8.8,0,0,1,0,1.1.8.8,0,0,1-.55.22,5,5,0,0,1-.91-.08,3.1,3.1,0,0,1-.69-.23,2.16,2.16,0,0,1-.53-.33,2.92,2.92,0,0,1-.39-.4l-.54.36a4.44,4.44,0,0,1-.69.34,4.74,4.74,0,0,1-.91.26A6.73,6.73,0,0,1,535.09,215.16Z" transform="translate(-45.41 -49.67)"/><path class="cls-11" d="M540,214.39a.81.81,0,0,1,.06-.31.81.81,0,0,1,.17-.24.78.78,0,0,1,.24-.16.73.73,0,0,1,.3-.06h.59l.62,0,.59,0,.47,0a2.65,2.65,0,0,1-1-2,4.27,4.27,0,0,1,.23-1.39,3.81,3.81,0,0,1,.64-1.19,3,3,0,0,1,1-.82,2,2,0,0,1,1.11-.27,2.63,2.63,0,0,1,1.22.33,2.8,2.8,0,0,1,.88.76,3.26,3.26,0,0,1,.51,1.06,3.83,3.83,0,0,1-.11,2.41,3.29,3.29,0,0,1-.65,1.06l.52.08.58.06.59,0h.56a.8.8,0,0,1,.55.22.74.74,0,0,1,.22.55.73.73,0,0,1-.06.3.78.78,0,0,1-.16.24.85.85,0,0,1-.25.17.73.73,0,0,1-.3.06h-.6l-.57,0-.56,0-.5-.06-.91-.18c-.29-.07-.57-.15-.85-.24a4.31,4.31,0,0,1-.85.24c-.32.07-.67.13-1,.18s-.76.08-1.16.1-.8,0-1.2,0h-.06a.75.75,0,0,1-.77-.77Zm4.58-9.63L543.34,206l-1.28-1.27,1.27-1.28Zm.38,4.6a.89.89,0,0,0-.46.15,1.69,1.69,0,0,0-.46.43,2.49,2.49,0,0,0-.35.67,2.67,2.67,0,0,0-.13.88,1,1,0,0,0,.34.72,3.26,3.26,0,0,0,1,.65l.13.06a1.64,1.64,0,0,0,.7-.55,2,2,0,0,0,.32-.75,2.36,2.36,0,0,0-.21-1.52,1.44,1.44,0,0,0-.39-.53A.74.74,0,0,0,545,209.36Zm2.83-4.6L546.55,206l-1.28-1.28,1.27-1.27Z" transform="translate(-45.41 -49.67)"/><path class="cls-11" d="M556,210.43a3.1,3.1,0,0,0-.61-.52,3.46,3.46,0,0,0-.72-.37,2.65,2.65,0,0,0-1-.17,1.84,1.84,0,0,0-.8.16,1.49,1.49,0,0,0-.57.41,1.68,1.68,0,0,0-.35.59,2,2,0,0,0-.12.69,1.86,1.86,0,0,0,.22.89,2.12,2.12,0,0,0,.58.68,2.72,2.72,0,0,0,.85.43,3,3,0,0,0,1,.11c.31,0,.61-.05.89-.09s.53-.07.75-.11.5-.09.72-.14l.19,1.49-1,.23c-.37.08-.81.15-1.31.21s-1.06.12-1.7.16-1.37.06-2.2.06l-1.71,0a.8.8,0,0,1-.56-.22.8.8,0,0,1,0-1.1.8.8,0,0,1,.56-.22l2.22,0a2.9,2.9,0,0,1-.8-1.1,3.51,3.51,0,0,1-.23-1.28,3.34,3.34,0,0,1,.25-1.3,3.43,3.43,0,0,1,.71-1.08,3.35,3.35,0,0,1,2.41-1,4,4,0,0,1,.7.06,4.15,4.15,0,0,1,.63.16,4.09,4.09,0,0,1,.56.23c.17.08.33.17.47.25a5.75,5.75,0,0,1,.9.71Z" transform="translate(-45.41 -49.67)"/><text class="cls-26" transform="translate(303.9 291.16)"><tspan xml:space="preserve"> یحارط</tspan></text><path class="cls-11" d="M141.2,213.87a2.63,2.63,0,0,1-.49-.85q-2.07,2.16-6.52,2.16a12.17,12.17,0,0,1-3.94-.57,4,4,0,0,1-2.26-1.74,3.08,3.08,0,0,1-.35-.79,3.87,3.87,0,0,1-.16-.81,5.21,5.21,0,0,1,0-.79,4.52,4.52,0,0,1,.13-.75c.06-.24.13-.46.19-.66s.13-.37.19-.51a2.54,2.54,0,0,1,.14-.34l.08-.15,1.36.74-.07.16c-.05.1-.1.23-.16.39s-.11.35-.17.56a3.74,3.74,0,0,0-.1.67,3.48,3.48,0,0,0,0,.72,2.19,2.19,0,0,0,.26.7,2.93,2.93,0,0,0,1.69,1.2,10.06,10.06,0,0,0,3.13.41,12.32,12.32,0,0,0,2.94-.3,5,5,0,0,0,2-1,3.65,3.65,0,0,0,.63-.61,4.79,4.79,0,0,0,.44-.7,5.16,5.16,0,0,0,.31-.73c.09-.24.16-.48.23-.72l1.49.41c0,.1-.06.22-.09.35s-.06.26-.09.41a3,3,0,0,0-.09.79,3.58,3.58,0,0,0,.1.7,1.58,1.58,0,0,0,.33.66,2.26,2.26,0,0,0,1.86.7.72.72,0,0,1,.55.22.77.77,0,0,1,0,1.1.76.76,0,0,1-.55.22h-.06A3.64,3.64,0,0,1,141.2,213.87ZM135.8,218l-1.27,1.28L133.25,218l1.27-1.27Z" transform="translate(-45.41 -49.67)"/><path class="cls-11" d="M143.57,214.4a.77.77,0,0,1,.76-.78h.08a3.55,3.55,0,0,0,1.26-.18,2,2,0,0,0,.63-.55,2.9,2.9,0,0,0,.44-.88c.11-.34.21-.75.32-1.2,0-.2.08-.4.13-.6s.09-.39.15-.59l1.48.46a2.11,2.11,0,0,0-.1.3c0,.11-.05.22-.07.34h0a2,2,0,0,0-.06.45,4.33,4.33,0,0,0,0,.63,3.32,3.32,0,0,0,.11.68,1.86,1.86,0,0,0,.29.6l.05.08c.07-.15.17-.34.29-.58s.28-.49.46-.77.4-.58.64-.89a11,11,0,0,1,.81-.9,6.89,6.89,0,0,1,1.51-1.09,6,6,0,0,1,1.68-.58,4.08,4.08,0,0,1,1.85.07,3.15,3.15,0,0,1,1.48.91,2.91,2.91,0,0,1,.68,1,2.66,2.66,0,0,1,.17,1.15,3.23,3.23,0,0,1-.94,2.13h1.81a.79.79,0,0,1,.56.23.74.74,0,0,1,.22.55.7.7,0,0,1-.22.54.78.78,0,0,1-.56.22h-2a12.42,12.42,0,0,1-1.38-.06,2.48,2.48,0,0,1-.84-.19,9.4,9.4,0,0,1-1.65.31c-.56.05-1.08.08-1.57.08s-.88,0-1.23-.05l-.78-.07a5.89,5.89,0,0,1-.63-.11,2.73,2.73,0,0,1-.55-.19,2.55,2.55,0,0,1-.62-.37,3.37,3.37,0,0,1-.5-.5.71.71,0,0,1-.18-.23,3.22,3.22,0,0,1-1.26,1,4.57,4.57,0,0,1-2,.37.73.73,0,0,1-.54-.22A.7.7,0,0,1,143.57,214.4Zm6.93-.71q.42,0,.93.06a9,9,0,0,0,1,0c.36,0,.72,0,1.08-.08a8.67,8.67,0,0,0,1.06-.18,5.52,5.52,0,0,0,1-.32,3,3,0,0,0,.78-.46,1.76,1.76,0,0,0,.71-1.33,1.66,1.66,0,0,0,0-.32,1.36,1.36,0,0,0-.11-.28.83.83,0,0,0-.14-.22.76.76,0,0,0-.14-.16,1.59,1.59,0,0,0-.48-.36,2.11,2.11,0,0,0-.52-.17,2.15,2.15,0,0,0-.5,0,2.81,2.81,0,0,0-.45,0,3.72,3.72,0,0,0-1.24.42,5.43,5.43,0,0,0-1.16.84,7.19,7.19,0,0,0-.65.71c-.19.24-.36.48-.51.7s-.28.45-.38.64Z" transform="translate(-45.41 -49.67)"/><path class="cls-11" d="M158.65,214.39a.74.74,0,0,1,.22-.55.78.78,0,0,1,.55-.22H161a2.93,2.93,0,0,0,.7-.11,1.7,1.7,0,0,0,.57-.29,1.44,1.44,0,0,0,.41-.52,2,2,0,0,0,.09-1,9.47,9.47,0,0,0-.32-1.45l-.2-.54-.22-.55-.26-.59,1.39-.68a1,1,0,0,1,.07.16c.05.1.12.24.19.41l.24.6c.09.22.17.46.25.72a5,5,0,0,1,.18,3.51,2.9,2.9,0,0,1-2,1.66,3.52,3.52,0,0,1-.83.14l-.75,0h-1.14a.78.78,0,0,1-.55-.22A.74.74,0,0,1,158.65,214.39Zm4.68-9-1.28,1.28-1.28-1.29,1.28-1.27Z" transform="translate(-45.41 -49.67)"/><path class="cls-11" d="M169.17,219.14a10.16,10.16,0,0,0,2.16-.67,8,8,0,0,0,1.64-1,5,5,0,0,0,1.07-1.15,2.93,2.93,0,0,0,.49-1.19h-.78c-.3,0-.6,0-.88,0a3.41,3.41,0,0,1-2.52-1.11,2.25,2.25,0,0,1-.45-1,3.84,3.84,0,0,1,0-1.22,5,5,0,0,1,.33-1.2,4.23,4.23,0,0,1,.57-1,2.85,2.85,0,0,1,.86-.75,2,2,0,0,1,1-.25,2.75,2.75,0,0,1,2,1,5,5,0,0,1,.7,1,7.11,7.11,0,0,1,.49,1.24,7.39,7.39,0,0,1,.25,1.37,7.49,7.49,0,0,1,0,1.42,6,6,0,0,1-.39,1.61,5.78,5.78,0,0,1-.76,1.38,6.41,6.41,0,0,1-1.06,1.15,7.81,7.81,0,0,1-1.31.9,9.45,9.45,0,0,1-3.06,1Zm3.45-9.07a.65.65,0,0,0-.43.18,1.69,1.69,0,0,0-.36.45,2.62,2.62,0,0,0-.27.61,4.27,4.27,0,0,0-.15.67,2.6,2.6,0,0,0,0,.62.93.93,0,0,0,.18.45.81.81,0,0,0,.29.26,2.5,2.5,0,0,0,.38.15l.39.09.33,0c.33,0,.63,0,.9,0l.72,0a7,7,0,0,0-.12-1,5,5,0,0,0-.24-.83,3.15,3.15,0,0,0-.33-.69,4.2,4.2,0,0,0-.38-.54l-.18-.17a1.66,1.66,0,0,0-.21-.16,1.34,1.34,0,0,0-.24-.12A.86.86,0,0,0,172.62,210.07Z" transform="translate(-45.41 -49.67)"/><path class="cls-11" d="M195,213.87a2.63,2.63,0,0,1-.49-.85q-2.07,2.16-6.52,2.16a12.17,12.17,0,0,1-3.94-.57,4,4,0,0,1-2.27-1.74,3.43,3.43,0,0,1-.34-.79,3.87,3.87,0,0,1-.16-.81,5.21,5.21,0,0,1,0-.79,4.52,4.52,0,0,1,.13-.75c.06-.24.13-.46.19-.66l.18-.51c.06-.15.11-.26.15-.34l.08-.15,1.36.74-.07.16c-.05.1-.1.23-.16.39s-.11.35-.17.56a3.74,3.74,0,0,0-.1.67,3.48,3.48,0,0,0,0,.72,2,2,0,0,0,.26.7,2.93,2.93,0,0,0,1.69,1.2,10.06,10.06,0,0,0,3.13.41,12.43,12.43,0,0,0,2.94-.3,5,5,0,0,0,2-1,3.26,3.26,0,0,0,.62-.61,4.14,4.14,0,0,0,.45-.7,5.16,5.16,0,0,0,.31-.73c.08-.24.16-.48.23-.72l1.48.41c0,.1-.05.22-.08.35s-.06.26-.1.41a3.45,3.45,0,0,0-.08.79,3.58,3.58,0,0,0,.1.7,1.58,1.58,0,0,0,.33.66,2.26,2.26,0,0,0,1.86.7.74.74,0,0,1,.55.22.77.77,0,0,1,0,1.1.78.78,0,0,1-.55.22H198A3.64,3.64,0,0,1,195,213.87Zm-6.72-6.41L187,208.72l-1.28-1.27,1.27-1.28Zm3.21,0-1.27,1.28L189,207.46l1.27-1.27Z" transform="translate(-45.41 -49.67)"/><path class="cls-11" d="M197.42,214.39a.75.75,0,0,1,.23-.55.8.8,0,0,1,.56-.22h1.55a10.4,10.4,0,0,0,2.08-.2,18.65,18.65,0,0,0,2-.52,19.54,19.54,0,0,0,2-.76c.64-.28,1.26-.57,1.85-.86-.35-.13-.69-.27-1-.41l-1-.45-.71-.33-.67-.29a6.31,6.31,0,0,0-.62-.2,2.09,2.09,0,0,0-.53-.07,1.4,1.4,0,0,0-.61.14,2,2,0,0,0-.54.36,2.73,2.73,0,0,0-.44.46c-.13.16-.24.32-.34.46a4,4,0,0,0-.21.36l-.08.15-1.41-.63.07-.14c0-.08.09-.18.17-.31a4.78,4.78,0,0,1,.27-.43c.11-.16.24-.32.38-.49a4.21,4.21,0,0,1,1.29-1.1,3,3,0,0,1,1.45-.37,4,4,0,0,1,.76.08,5.94,5.94,0,0,1,.79.24,6.89,6.89,0,0,1,.81.33l.84.38c.3.15.62.29.93.43s.63.27.95.38a8.62,8.62,0,0,0,1,.27,4.47,4.47,0,0,0,1,.1l.3,1.49c-.37.15-.73.31-1.09.49s-.74.36-1.13.55c-.57.29-1.19.57-1.85.86a21.11,21.11,0,0,1-2.07.78,19.83,19.83,0,0,1-2.24.57,13.24,13.24,0,0,1-2.34.22h-1.55a.81.81,0,0,1-.31-.06.85.85,0,0,1-.25-.17.78.78,0,0,1-.16-.24A.63.63,0,0,1,197.42,214.39Zm6.7-9.29-1.27,1.28-1.29-1.29,1.28-1.27Z" transform="translate(-45.41 -49.67)"/><path class="cls-11" d="M214.85,215.16a4.63,4.63,0,0,1-1.48-.21,2.5,2.5,0,0,1-1-.62,1.93,1.93,0,0,1-.4-.56,2.74,2.74,0,0,1-.2-.59,2.71,2.71,0,0,1-.08-.55v-.88c0-.19,0-.44,0-.75v-1.09c0-.42,0-.85,0-1.31s0-.92,0-1.4,0-1,0-1.41-.05-.87-.09-1.26a8.17,8.17,0,0,0-.12-.94l1.53-.28c0,.26.09.59.13,1s.06.8.09,1.26,0,.92,0,1.42,0,1,0,1.44,0,.9,0,1.32v1.94c0,.22,0,.35,0,.39v.14a5.53,5.53,0,0,0,0,.61.7.7,0,0,0,.21.43,1.85,1.85,0,0,0,1.33.38h.07a.77.77,0,0,1,.77.77.74.74,0,0,1-.22.55A.8.8,0,0,1,214.85,215.16Z" transform="translate(-45.41 -49.67)"/><path class="cls-11" d="M214.11,214.4a.72.72,0,0,1,.06-.29,1,1,0,0,1,.15-.24.76.76,0,0,1,.23-.17,1,1,0,0,1,.28-.08,1.92,1.92,0,0,0,.84-.18,2.38,2.38,0,0,0,.66-.48,3.59,3.59,0,0,0,.5-.69,5.58,5.58,0,0,0,.38-.82,8.52,8.52,0,0,0,.26-.86c.07-.29.13-.56.18-.82l1.55.33-.15.49q-.09.3-.18.63c-.06.23-.1.46-.15.7a4,4,0,0,0-.06.66,1.84,1.84,0,0,0,0,.41,1.17,1.17,0,0,0,.13.36.78.78,0,0,0,.26.25.87.87,0,0,0,.42.09,1.19,1.19,0,0,0,.71-.22,2.2,2.2,0,0,0,.57-.57,4.21,4.21,0,0,0,.42-.79,8.14,8.14,0,0,0,.31-.91c.09-.31.16-.61.22-.9s.1-.54.13-.75l1.5.27c-.06.34-.1.63-.14.87s-.08.5-.11.78a6.66,6.66,0,0,0,0,.73,3.24,3.24,0,0,0,0,.55,1.46,1.46,0,0,0,.14.46.78.78,0,0,0,.26.33.65.65,0,0,0,.39.15,2,2,0,0,0,.6,0,1.25,1.25,0,0,0,.38-.15.78.78,0,0,0,.21-.19l.09-.15h0a1.13,1.13,0,0,0,.15-.39,2.34,2.34,0,0,0,0-.47,4.24,4.24,0,0,0-.13-1,9.1,9.1,0,0,0-.29-1,8.85,8.85,0,0,0-.35-.92c-.12-.28-.22-.51-.31-.68l1.37-.72.15.3c.07.15.16.34.25.55s.19.46.3.73.19.56.27.86a7.21,7.21,0,0,1,.21.92,4.84,4.84,0,0,1,.08.92,3.84,3.84,0,0,1-.18,1.21,2.41,2.41,0,0,1-1.51,1.52,3.62,3.62,0,0,1-1.33.2,2.08,2.08,0,0,1-.6-.09,2.94,2.94,0,0,1-.57-.26,3,3,0,0,1-.51-.37,2.5,2.5,0,0,1-.4-.47,3.62,3.62,0,0,1-1.06.87,2.68,2.68,0,0,1-1.26.32,2.46,2.46,0,0,1-.6-.07,2.34,2.34,0,0,1-.59-.23,2.68,2.68,0,0,1-.52-.36,1.6,1.6,0,0,1-.35-.51,3.68,3.68,0,0,1-1.07.78,3.54,3.54,0,0,1-1.42.31h-.13a.74.74,0,0,1-.28-.08.73.73,0,0,1-.23-.16,1,1,0,0,1-.15-.24A.72.72,0,0,1,214.11,214.4Z" transform="translate(-45.41 -49.67)"/><path class="cls-17" d="M395.72,198.36s-1.86-8.26-.87-8.35,2.69,3.45,2.69,3.45-.34-10.65,1.14-10.85,6.13,2.6,6.13,7.88A71.23,71.23,0,0,1,403.9,201Z" transform="translate(-45.41 -49.67)"/><path class="cls-18" d="M352.21,200.37c-3.32-1.85-10.75-10.5-23.9-.45-4,3.06-8,7.17-7.47,12a12.25,12.25,0,0,0-.22,1.72c-.15,2.82.54,5.65.18,8.45-.76,5.91-5.88,10.15-8.92,15.28-5.21,8.81-3.82,20.67,2.3,28.88s16.33,12.82,26.55,13.4c5.7.32,11.64-.58,16.47-3.65s8.32-8.57,8-14.27c-.24-4.16-2.4-8-2.84-12.14-.6-5.73-4.24-10.2-2.73-15.76C362.68,222.58,362.43,206.06,352.21,200.37Z" transform="translate(-45.41 -49.67)"/><path class="cls-15" d="M392.57,263.64a39,39,0,0,1-12,8.69l-.26.12v.28c-.37,14.1-3.6,30-5.67,38.93H305c-.11-.35-.22-.71-.33-1.09-.18-.6-.37-1.23-.56-1.9-4.59-15.68-12.81-49-3.49-59.51l.05-.06c1.53-1.69,4.67-3.27,8.51-4.68,8.18-3,19.6-5.23,25.71-6.3,2.54-.45,4.15-.69,4.24-.7l.51-.15c.51.08,2.83.49,6.06,1.16l.35.07.15-.33.16-.33c.37,0,1,.13,1.85.21a54.91,54.91,0,0,0,11.11-.13c10.54-1.19,24.18-6.08,28.45-22.66,2.52-9.81,4-15.6,4.37-17.24l3.56.27,8.49.62,2.44.18C407.25,203.25,412.37,242.59,392.57,263.64Z" transform="translate(-45.41 -49.67)"/><path class="cls-27" d="M407.5,198.59l-.06-.36-3.12-.22-8.81-.65-3.67-.27-.48-.1v.49c0,.08-.26,1.29-4.45,17.55-4.14,16.06-17.37,20.81-27.63,22a54.72,54.72,0,0,1-11,.11c-1.25-.11-2-.23-2-.24l-.33-.06-.15.3s-.07.12-.17.33c-3.46-.71-5.81-1.1-5.83-1.1l-.1,0-.67.19c-.27,0-1.76.26-4,.65-5.93,1-17.12,3.2-25.47,6.19-4.28,1.52-7.79,3.26-9.49,5.18a14.5,14.5,0,0,0-2.53,4.27c-5.45,13.69,1.59,41.89,6,56.79.09.29.18.57.26.85s.24.82.36,1.2h1c-.11-.35-.22-.71-.33-1.09-.18-.6-.37-1.23-.56-1.9-4.59-15.68-12.81-49-3.49-59.51l.05-.06c1.53-1.69,4.67-3.27,8.51-4.68,8.18-3,19.6-5.23,25.71-6.3,2.54-.45,4.15-.69,4.24-.7l.51-.15c.51.08,2.83.49,6.06,1.16l.35.07.15-.33.16-.33c.37,0,1,.13,1.85.21a54.91,54.91,0,0,0,11.11-.13c10.54-1.19,24.18-6.08,28.45-22.66,2.52-9.81,4-15.6,4.37-17.24l3.56.27,8.49.62,2.44.18c.6,4.16,5.72,43.5-14.08,64.55a39,39,0,0,1-12,8.69l-.26.12v.28c-.37,14.1-3.6,30-5.67,38.93h.94c2.06-8.92,5.24-24.63,5.64-38.62a40.15,40.15,0,0,0,12.46-9.3C414.22,241.14,407.58,199.08,407.5,198.59Z" transform="translate(-45.41 -49.67)"/><path class="cls-17" d="M354.37,224.5h-.15c-1.2,5.07-2.94,9.52-6,12.08v5a5.11,5.11,0,0,1-5.11,5.11H340a5.11,5.11,0,0,1-5.11-5.11V237a20.84,20.84,0,0,1-9.07-12.59c-3.06-.73-4.83-6.23-2.65-8.77.88-1,1.78-.69,2.54.12a16.36,16.36,0,0,1,15.84-12.31c7.95,0,14.35,1.92,14.08,11.88a1.39,1.39,0,0,1,2.06.31C360.05,218.35,357.84,224.5,354.37,224.5Z" transform="translate(-45.41 -49.67)"/><path class="cls-28" d="M336.94,278.31s4.55-6.69,5.33-6.09-.65,3.76-.65,3.76,6-7.76,7.22-6.89,3.65,7.77,0,11.62a20.39,20.39,0,0,1-7.82,5.16Z" transform="translate(-45.41 -49.67)"/><path class="cls-14" d="M300.33,248.83s-31.45,39.31-6.91,57.6c16.41,12.23,45.1-4.21,52.4-21.17l-9.18-9.15" transform="translate(-45.41 -49.67)"/><path class="cls-29" d="M306.47,265.24s-8,21.41,24.2,21.41" transform="translate(-45.41 -49.67)"/><path class="cls-27" d="M325.24,307.29v4.37H302.93a4.45,4.45,0,0,1,.19-1.28,4.79,4.79,0,0,1,.32-.77,3.57,3.57,0,0,1,.69-.94.28.28,0,0,1,.09-.1,4.35,4.35,0,0,1,3.09-1.28Z" transform="translate(-45.41 -49.67)"/><path class="cls-27" d="M396.29,267.79,389,311.66H323.8l.73-4.37.22-1.34L328,286.59l1.54-9.21,1-5.89.62-3.7a5.1,5.1,0,0,1,4.85-4.15h56.87a3.54,3.54,0,0,1,.88.1A3.4,3.4,0,0,1,396.29,267.79Z" transform="translate(-45.41 -49.67)"/><path class="cls-15" d="M366.53,287.65a6.14,6.14,0,1,1-6.14-6.14A6.14,6.14,0,0,1,366.53,287.65Z" transform="translate(-45.41 -49.67)"/><path class="cls-27" d="M343.62,202c-1.7,4.93-3.74,10.28-8.28,12.84-1.09.61-2.28,1-3.36,1.66-3.08,1.77-7.33,4-8.27,7.4s-5.79,6.12-5.83,9.67c-1.31-4.72,5.08-7.66,5.05-12.56a23.22,23.22,0,0,1,.51-5.52c.81-3.4,2.8-6.37,4.75-9.27a6.58,6.58,0,0,1,4.48-3.39l8.61-2.81Z" transform="translate(-45.41 -49.67)"/><path class="cls-27" d="M342.31,201.59c-1.45,4.16-3,8.72-6.76,11.39-3.06,2.2-6.75,3.34-9.7,5.79-2.32,1.93-2.74,3.94-4.28,6.38-1.77,2.79-4.51,4.55-5,8h2.62c-.54-3.13,2.27-5.27,3.7-7.71,1.17-2,1.25-3.61,1.41-5.88a21,21,0,0,1,4.23-11.47c3.25-4.34,8.22-5.23,13.11-6.82,1.65-.54.95-3.16-.72-2.62-4,1.31-9.89,2-12.82,5.34a28.19,28.19,0,0,0-6,11.08c-.48,1.95-.28,3.92-.55,5.88a11.67,11.67,0,0,1-2.52,5.25c-1.76,2.5-3,4.54-2.49,7.67.22,1.28,2.44,1.32,2.62,0,.47-3.35,3.74-5.63,5.36-8.5,1.25-2.2,2.11-3.93,4.26-5.44a40.31,40.31,0,0,1,5-2.89c6.32-3.18,8.88-8.22,11.16-14.74.58-1.65-2-2.36-2.62-.72Z" transform="translate(-45.41 -49.67)"/><path class="cls-18" d="M213.05,155.43l-3.63,20.07s1.6,1.22,2.61.73l5.29-19.67S216,154.76,213.05,155.43Z" transform="translate(-45.41 -49.67)"/><path class="cls-15" d="M219.09,103.59a23.23,23.23,0,0,0-.14,2.49,3.53,3.53,0,0,0,.05.52,15.51,15.51,0,0,1-.79,3.83c-.49,1.71-1.15,3.8-1.86,5.84a3.07,3.07,0,0,1-.43,1c-.77,1.17-2.74,2.55-7.54-.64l-.53-.94c-.77-1.39-2.15-3.88-2.42-4.39-.37-.72-.12-3,.4-5.51h0a8.67,8.67,0,0,1,.23-.91v0a14.62,14.62,0,0,1,.75-2v0c.17-.38.35-.75.52-1.08a6.19,6.19,0,0,1,1.24-1.86,2.29,2.29,0,0,1,1.88-.28,4.29,4.29,0,0,1,1.92,1.11,2.67,2.67,0,0,1,2.45.77,2.31,2.31,0,0,1,2.28,1.19s1.43-.18,2,.82h0Z" transform="translate(-45.41 -49.67)"/><rect class="cls-15" x="187.74" y="87.39" width="4.79" height="5.71" transform="translate(-6.63 186.82) rotate(-69.41)"/><rect class="cls-15" x="183.26" y="94.1" width="8.93" height="5.13" transform="translate(-14.19 188.73) rotate(-69.41)"/><path class="cls-15" d="M183.75,99.94l.49,10.56a.5.5,0,0,0,1,.15l3.35-8.91Z" transform="translate(-45.41 -49.67)"/><rect class="cls-15" x="194.48" y="89.24" width="3.98" height="21.42" transform="matrix(0.35, -0.94, 0.94, 0.35, -11.59, 199.06)"/><rect class="cls-18" x="218.58" y="92.15" width="4.33" height="33.83" transform="translate(-4.4 227.68) rotate(-69.41)"/><path class="cls-15" d="M208.44,100.53s-1.15,6.49-.13,6.8a1.66,1.66,0,0,0,1.59-.19l.73,2.89s1.57,1.64,2.9-.55c0,0,1.3,1.68,2.33-.58,0,0,1.35.72,2-.24s1.23-5.17,1.23-5.17-.28-.94-1.95-.88a2.27,2.27,0,0,0-2.29-1.17,2.48,2.48,0,0,0-2.45-.76s-1.86-2.18-3.81-.81C208.6,99.87,208.49,100.26,208.44,100.53Z" transform="translate(-45.41 -49.67)"/><path class="cls-15" d="M205.44,111.09s2.74-3.6,5.1-4.91a1.36,1.36,0,0,1,1.58-.11c.47.39.52,1.56-.58,3.19a16.49,16.49,0,0,0-1.8,4.22S208.12,114.81,205.44,111.09Z" transform="translate(-45.41 -49.67)"/><path class="cls-30" d="M184.47,144a1.77,1.77,0,0,0,0,.23.17.17,0,0,0,0,.07c0,.1,0,.19,0,.27a.86.86,0,0,0,0,.16c0,.06,0,.11,0,.17s0,.15,0,.2,0,.07,0,.1v.13c-2.44-1.38-4.68-2.71-6.38-3.78l-.1-.06c-1.63-1-2.76-1.77-3.09-2l-.05,0c-1.05-.94-17.49-6.31-10.28-15.76a16,16,0,0,1,2.83-2.69c.43,0,.82-.08,1.18-.15,1.38-.25,1.87-1,1.94-1.76a13,13,0,0,1,2.41-.87,9.2,9.2,0,0,1,2.62-.28h0a7.91,7.91,0,0,1,1.08.11h0a8,8,0,0,1,2.59.94h0l.44.26h0l.06,0c1.09,1,2.94,7.91,4,13.33a17.21,17.21,0,0,1,.64,3.6v0A68.74,68.74,0,0,1,184.47,144Z" transform="translate(-45.41 -49.67)"/><path class="cls-31" d="M167.66,186.66a124.13,124.13,0,0,1-30.87.26c0-.12.08-.24.13-.36C139.64,179.44,155.13,182.68,167.66,186.66Z" transform="translate(-45.41 -49.67)"/><path class="cls-15" d="M180.35,184.25a98.54,98.54,0,0,1-12.68,2.41l-7.74.78-2.15.13-6.86.19a117.22,117.22,0,0,1-14.13-.84l-.82-.11s2.24-8.79,1.28-16.74c-.17-1.39-.39-3-.65-4.73h0c4.51-2.46,8.74-7,12.09-11.43,1.63,2,3.17,4,4.39,5.51,4.51,5.79,8.78,6.1,11.6,6.4,1.88.2,9.17,1.18,16.71,2.22C180.25,177.4,179.54,177.71,180.35,184.25Z" transform="translate(-45.41 -49.67)"/><path class="cls-15" d="M216.16,117.32s-3.13,28-6.11,32.83c-1.42,2.29-3.91,3.54-10.69,1.93-3.15-.74-7.7-2.87-12-5.18h0c-1-.53-2-1.08-2.94-1.61h0c-.2,3.22-.5,7-.91,10.36-.69-.17-1.19-.29-1.45-.34l-1.29-.31-3.84-.92-1.74-.42c-3.46-.83-7.15-1.75-8.38-2.1-1.08-.3-4-4.66-6.61-8.78-.56-.89-1.1-1.76-1.59-2.59h0c-1.26-2.11-2.25-3.86-2.56-4.51-.78-1.59-2.61-4.07-4.39-7.57,0,0,0,0,0,0a23,23,0,0,0-7.15-10.69l3.24-.69h.06c1.18-.24,2.27-.46,3.15-.62-.08.58-.14.9-.14.9a44.71,44.71,0,0,0,11.52,3.61,18.61,18.61,0,0,0,5,.31c.43,0,.82-.08,1.18-.15,1.38-.25,1.87-1,1.94-1.76a5.48,5.48,0,0,0-.91-2.82h0c.83.19,1.79.41,2.81.66h0l.09,0h.07l.09,0h0l.1,0,.08,0,.18,0,.1,0h0l.18,0c.42.1.93.23,1.39.36l.52.14.1,0,1.23.36h0a18.73,18.73,0,0,1,2.59.94h0a3.2,3.2,0,0,1,.44.26h0c5.18,3.23,9.38,10.44,10.94,11.88s9.46,8,9.46,8c.5.61,3.61-8,3.72-9,.49-4.34,2.55-14.61,2.55-14.61l1.52.3,8.07,1.58Z" transform="translate(-45.41 -49.67)"/><path class="cls-18" d="M183.63,155.85l-.17,0-1.45-.34-1.3-.3-3.84-.92-1.18-.28-.56-.14c-3.22-.78-7.11-1.74-8.39-2.1S162,146,160,142.87c-.56-.89-1.09-1.77-1.59-2.59l0-.05c-1.18-2-2.2-3.78-2.54-4.48s-.85-1.51-1.46-2.49c-.84-1.35-1.89-3-2.91-5l0-.07c-1.66-4.67-4-8.24-7.1-10.61l-.28-.21.34-.08,3.25-.69h.09c1.15-.23,2.24-.45,3.12-.61l.22,0,0,.22c-.05.37-.09.64-.12.78a45.18,45.18,0,0,0,11.36,3.55,19.42,19.42,0,0,0,5,.31c.44,0,.82-.09,1.16-.15,1.14-.21,1.73-.74,1.8-1.62a5.13,5.13,0,0,0-.88-2.7l-.17-.26h.35c.82.19,1.79.41,2.8.66h0l.1,0h.05l.09,0h0l.08,0,.18,0,.4.1c.44.1.94.23,1.41.36l.61.17,1.22.34.06,0a18.22,18.22,0,0,1,2.59.94h0l0,0a3.11,3.11,0,0,1,.45.27h0c3.66,2.3,6.82,6.54,8.91,9.36a25,25,0,0,0,2,2.52c1.54,1.42,8.87,7.47,9.42,7.92.69-.54,3.37-7.89,3.49-8.89.48-4.29,2.53-14.52,2.55-14.63l0-.16,10.13,2,0,.15c-.13,1.15-3.17,28.13-6.13,32.9-1.29,2.07-3.5,3.74-10.87,2-2.77-.65-6.83-2.4-12.06-5.19l-.09-.05c-.79-.42-1.63-.88-2.63-1.44-.21,3.55-.53,7.12-.88,10.1Zm-24.88-15.7c.49.81,1,1.67,1.57,2.55,3.24,5.21,5.67,8.47,6.51,8.7,1.27.36,5.16,1.32,8.38,2.1l.56.14,1.18.29,3.84.92,1.29.3,1.27.29c.36-3,.67-6.61.88-10.16l0-.26.23.12c1.13.64,2.06,1.15,2.93,1.61l.09.06c5.1,2.71,9.21,4.48,11.9,5.12,7.16,1.69,9.28.1,10.51-1.86,2.81-4.53,5.82-30.4,6.07-32.62l-9.52-1.87c-.26,1.32-2.07,10.45-2.52,14.44-.09.83-2.89,8.93-3.75,9.19a.24.24,0,0,1-.26-.08c-.05,0-7.84-6.47-9.44-7.94a24.66,24.66,0,0,1-2.06-2.57c-2.08-2.8-5.24-7-8.85-9.29l-.05,0a1.78,1.78,0,0,0-.37-.22l0,0a18.16,18.16,0,0,0-2.57-.93l-.07,0-1.2-.35-.62-.16c-.46-.13-1-.26-1.39-.36l-.54-.14h-.05l-.07,0-.07,0h-.13l-.06,0h-.06l-2.42-.57a5,5,0,0,1,.73,2.58c-.09,1-.79,1.68-2.07,1.91-.35.06-.74.11-1.19.15a19.23,19.23,0,0,1-5.08-.31,45.44,45.44,0,0,1-11.54-3.62l-.12,0,0-.13s.05-.24.11-.67l-2.93.58h-.05c-.87.18-1.84.38-2.91.62A23.11,23.11,0,0,1,151.77,128l0,0c1,2,2.07,3.7,2.91,5.06.61,1,1.15,1.84,1.48,2.52s1.36,2.5,2.55,4.49Zm41.41-1.25Z" transform="translate(-45.41 -49.67)"/><path class="cls-18" d="M180.35,184.25a98.54,98.54,0,0,1-12.68,2.41c-2.34.3-4.93.58-7.74.78l-2.15.13c-2.18.12-4.47.19-6.86.19a117.22,117.22,0,0,1-14.13-.84l-.82-.11s2.24-8.79,1.28-16.74c-.17-1.39-.39-3-.65-4.73h0c4.51-2.46,8.74-7,12.09-11.43,1.63,2,3.17,4,4.39,5.51,4.51,5.79,8.78,6.1,11.6,6.4,1.88.2,9.17,1.18,16.71,2.22C180.25,177.4,179.54,177.71,180.35,184.25Z" transform="translate(-45.41 -49.67)"/><path class="cls-18" d="M180.75,155l-3.84-.92-1.74-.42c-3.46-.83-7.15-1.75-8.38-2.1-1.08-.3-4-4.66-6.61-8.78H175.4l2.18,5Z" transform="translate(-45.41 -49.67)"/><path class="cls-18" d="M158.59,140.19c-1.26-2.11-2.25-3.86-2.56-4.51-.78-1.59-2.61-4.07-4.39-7.57,0,0,0,0,0,0a23,23,0,0,0-7.15-10.69,9.61,9.61,0,0,1,3.24-.69h.06S155.79,119.91,158.59,140.19Z" transform="translate(-45.41 -49.67)"/><path class="cls-18" d="M174.52,142.79s2-16.2-2.18-25.95c0,0,1.91.46,3,.77,0,0,4.39,5.75,2.25,30.17S174.52,142.79,174.52,142.79Z" transform="translate(-45.41 -49.67)"/><path class="cls-15" d="M216.16,174.35a6.38,6.38,0,0,1-2,.29s-1.21-.29-2.08-.44a4.3,4.3,0,0,0-.67-.09,11.88,11.88,0,0,1-3.7-.41c-1.57-.52-7.77-4.48-7.77-4.48l1.2-4,.58-3.86s9.87-2.26,11.38-2l.43.11a14.49,14.49,0,0,1,2.67,1.49c.24.1,2.49,1.29,2.65,2a2.52,2.52,0,0,1-.56,2.36,6,6,0,0,1-.37,3.25,3.67,3.67,0,0,1-.92,3.13S217.15,173.76,216.16,174.35Z" transform="translate(-45.41 -49.67)"/><path class="cls-15" d="M202.35,160.23l-.15,1.05L201,169.9l-.12.85s-9.37-1.32-18.64-2.59l-.85-.12c-7.54-1-14.83-2-16.71-2.22-2.82-.3-7.09-.61-11.6-6.4-1.22-1.56-2.76-3.49-4.39-5.51-3.35,4.4-7.58,9-12.09,11.43-.71-4.89-1.69-10.84-2.57-16v0c-.19-.91-3.16-15.56-3.52-20.72a9.49,9.49,0,0,1,3.92-8.16h0c1.07-.9,5.66-2.08,10-3a23,23,0,0,1,7.15,10.69s0,0,0,0c1.78,3.5,3.61,6,4.39,7.57.31.65,1.3,2.4,2.56,4.51h0c.49.83,1,1.7,1.59,2.59,2.56,4.12,5.53,8.48,6.61,8.78,1.23.35,4.92,1.27,8.38,2.1l1.74.42,3.84.92,1.29.31c.26.05.76.17,1.45.34C188.36,156.8,202.35,160.23,202.35,160.23Z" transform="translate(-45.41 -49.67)"/><path class="cls-18" d="M201,170.93l-.16,0-18.64-2.59-.85-.12c-6.51-.89-14.69-2-16.71-2.22l-.23,0c-2.81-.29-7.05-.74-11.48-6.43-1.24-1.59-2.84-3.58-4.26-5.34-4.15,5.42-8.19,9.22-12,11.3l-.21.11,0-.23c-.77-5.25-1.82-11.57-2.57-16a.12.12,0,0,1,0-.05c0-.14-3.15-15.42-3.53-20.73a9.58,9.58,0,0,1,4-8.3c.9-.77,4.31-1.81,10.11-3.08h.08l.06,0A22.89,22.89,0,0,1,151.77,128l0,0c1,2,2.07,3.7,2.91,5.06.61,1,1.15,1.84,1.48,2.52s1.36,2.5,2.55,4.49l0,.05c.49.81,1,1.67,1.57,2.55,3.24,5.21,5.67,8.47,6.51,8.7,1.27.36,5.16,1.32,8.38,2.1l.56.14,1.18.29,3.84.92,1.29.3c.26,0,.76.17,1.45.34,4.81,1.13,18.72,4.55,18.85,4.58l.15,0Zm-52.34-17.28.13.16c1.46,1.8,3.12,3.87,4.4,5.51,4.35,5.58,8.5,6,11.25,6.31l.23,0c2,.22,10.21,1.33,16.73,2.23l.84.11c8.56,1.18,17.21,2.39,18.48,2.57l.1-.69,1.32-9.52c-1.49-.36-14.16-3.47-18.7-4.55l-1.45-.34-1.3-.3-3.84-.92-1.18-.28-.56-.14c-3.22-.78-7.11-1.74-8.39-2.1S162,146,160,142.87c-.56-.89-1.09-1.77-1.59-2.59l0-.05c-1.18-2-2.2-3.78-2.54-4.48s-.85-1.51-1.46-2.49c-.84-1.35-1.89-3-2.91-5l0-.07a22.73,22.73,0,0,0-7-10.56c-5.63,1.23-9.05,2.26-9.9,3l0,0a9.28,9.28,0,0,0-3.84,8c.37,5.29,3.49,20.54,3.52,20.69v.05c.74,4.32,1.77,10.53,2.54,15.74,3.76-2.1,7.74-5.89,11.83-11.26Z" transform="translate(-45.41 -49.67)"/><path class="cls-32" d="M156.43,84a12.53,12.53,0,0,0,1.71,6l-3.38,1.32c.07,1.77-.17,3.33-.94,3.81-.49.32-1.52-.1-2.5-.94-2.38,4.54-3.08,4.36-3.08,4.36h0a46.58,46.58,0,0,1-3.52-10.42c-.89-4.44-.86-8.57.49-11.57,3.35-7.49,13.42-8.92,19.17-8.6,0,0,7,1.62,10.54,11,.19.52.38,1.07.55,1.64.08.24.15.49.22.74a32.37,32.37,0,0,1,.74,3.42C169.37,85.59,160.59,84.58,156.43,84Z" transform="translate(-45.41 -49.67)"/><path class="cls-18" d="M175.47,80.56a41.94,41.94,0,0,0-7.36-1.37,20.62,20.62,0,0,0-8.52.7,4.39,4.39,0,0,0-2.84,2.54,3,3,0,0,0-.11.32,4.74,4.74,0,0,0-.21,1.24,12.53,12.53,0,0,0,1.71,6l-3.38,1.32-1.38.54c-.26.53-.72-.33-1.32.88-.26.53-.51,1-.74,1.45-2.38,4.54-3.08,4.36-3.08,4.36h0a46.58,46.58,0,0,1-3.52-10.42c-.89-4.44-.86-8.57.49-11.57,3.35-7.49,13.42-8.92,19.17-8.6,0,0,7,1.62,10.54,11C175.11,79.44,175.3,80,175.47,80.56Z" transform="translate(-45.41 -49.67)"/><path class="cls-15" d="M167.35,112.31a22.7,22.7,0,0,0,.56,3,2.86,2.86,0,0,0,.07.28,11,11,0,0,1,1.56.54h0a5.48,5.48,0,0,1,.91,2.82c-.07.79-.56,1.51-1.94,1.76-.36.07-.75.11-1.18.15a18.61,18.61,0,0,1-5-.31A44.71,44.71,0,0,1,150.79,117s.06-.32.14-.9a39.9,39.9,0,0,0-.65-13.71c-.73-1.25-1.41-2.55-2-3.88,0,0,.7.18,3.08-4.36-1.44-1.25-2.74-3.42-1.92-5.52,1.37-3.51,4.59-2.1,4.95-.47a19.17,19.17,0,0,1,.41,3.12L158.14,90a12.53,12.53,0,0,1-1.71-6c4.16.59,12.94,1.6,20,.73a42.08,42.08,0,0,1,.51,7.26C176.82,104.56,172.48,110.61,167.35,112.31Z" transform="translate(-45.41 -49.67)"/><path class="cls-18" d="M166,121.12a20.08,20.08,0,0,1-3.75-.36,45.44,45.44,0,0,1-11.54-3.62l-.12,0,0-.13s.06-.32.14-.89a39.45,39.45,0,0,0-.65-13.63c-.71-1.22-1.39-2.52-2-3.87l-.14-.32.33.09s.71-.14,2.84-4.17c-1.41-1.26-2.72-3.46-1.88-5.61.61-1.55,1.68-2.38,2.94-2.28a2.64,2.64,0,0,1,2.33,1.84,19.34,19.34,0,0,1,.4,2.92l3-1.17A12.34,12.34,0,0,1,156.26,84V83.8l.18,0c4.48.63,13,1.58,20,.72l.16,0,0,.16a42.12,42.12,0,0,1,.51,7.3c-.14,14.88-6,19.19-9.58,20.43a25.64,25.64,0,0,0,.54,2.9l.05.19a10.76,10.76,0,0,1,1.46.51h.05l.06.07a5.56,5.56,0,0,1,.93,2.92c-.09,1-.79,1.68-2.07,1.91-.35.06-.74.11-1.19.15S166.48,121.12,166,121.12ZM151,116.89a45.18,45.18,0,0,0,11.36,3.55,19.42,19.42,0,0,0,5,.31c.44,0,.82-.09,1.16-.15,1.14-.21,1.73-.74,1.8-1.62a5,5,0,0,0-.85-2.66,10,10,0,0,0-1.49-.52l-.09,0-.1-.38a25,25,0,0,1-.57-3.08v-.13l.13,0c3.47-1.15,9.33-5.31,9.48-20.17a42.79,42.79,0,0,0-.49-7.08c-6.84.81-15.2-.09-19.71-.72a12.63,12.63,0,0,0,1.7,5.69l.1.17-3.78,1.47v-.23a18.54,18.54,0,0,0-.4-3.1,2.3,2.3,0,0,0-2-1.57c-.66-.06-1.86.15-2.61,2.07s.51,4.15,1.88,5.33l.1.09-.06.11c-1.71,3.26-2.59,4.16-3,4.39.61,1.29,1.26,2.53,1.95,3.7l0,0a39.93,39.93,0,0,1,.65,13.76C151,116.48,151,116.75,151,116.89Z" transform="translate(-45.41 -49.67)"/><path class="cls-18" d="M144.19,88.41s15.3-10.58,33.14-6.81c0,0-1.05-22.3-21.37-18.48C136.87,66.7,143.53,85.89,144.19,88.41Z" transform="translate(-45.41 -49.67)"/><path class="cls-18" d="M178.94,84.31c-.8.16-1.64.3-2.51.41-7.06.87-15.84-.14-20-.73-1.51-.22-2.41-.38-2.41-.38.94-.43,1.85-.83,2.73-1.18a48.86,48.86,0,0,1,11.36-3.24,28.51,28.51,0,0,1,6.81-.27,11.74,11.74,0,0,1,2.14.37S188.66,82.27,178.94,84.31Z" transform="translate(-45.41 -49.67)"/></g></g></svg>